<svg width="28" height="28" viewBox="0 0 28 28" fill="none" xmlns="http://www.w3.org/2000/svg">
<path d="M8.95999 1.68005C4.94618 1.68005 1.67999 4.94624 1.67999 8.96005V19.0401C1.67999 23.0539 4.94618 26.3201 8.95999 26.3201H19.04C23.0538 26.3201 26.32 23.0539 26.32 19.0401V8.96005C26.32 4.94624 23.0538 1.68005 19.04 1.68005H8.95999ZM8.95999 2.80005H19.04C22.4484 2.80005 25.2 5.55162 25.2 8.96005V19.0401C25.2 22.4485 22.4484 25.2001 19.04 25.2001H8.95999C5.55156 25.2001 2.79999 22.4485 2.79999 19.0401V8.96005C2.79999 5.55162 5.55156 2.80005 8.95999 2.80005ZM20.72 6.16005C20.423 6.16005 20.1381 6.27805 19.928 6.48809C19.718 6.69813 19.6 6.98301 19.6 7.28005C19.6 7.5771 19.718 7.86197 19.928 8.07201C20.1381 8.28205 20.423 8.40005 20.72 8.40005C21.017 8.40005 21.3019 8.28205 21.512 8.07201C21.722 7.86197 21.84 7.5771 21.84 7.28005C21.84 6.98301 21.722 6.69813 21.512 6.48809C21.3019 6.27805 21.017 6.16005 20.72 6.16005ZM14 7.84005C10.6046 7.84005 7.83999 10.6046 7.83999 14.0001C7.83999 17.3955 10.6046 20.1601 14 20.1601C17.3954 20.1601 20.16 17.3955 20.16 14.0001C20.16 10.6046 17.3954 7.84005 14 7.84005ZM14 8.96005C16.7901 8.96005 19.04 11.2099 19.04 14.0001C19.04 16.7902 16.7901 19.0401 14 19.0401C11.2098 19.0401 8.95999 16.7902 8.95999 14.0001C8.95999 11.2099 11.2098 8.96005 14 8.96005Z" fill="#C6F5F0"/>
</svg>
