<svg width="28" height="28" viewBox="0 0 28 28" fill="none" xmlns="http://www.w3.org/2000/svg">
<path d="M14 1.12C6.89333 1.12 1.12 6.89333 1.12 14C1.12 16.2843 1.74646 18.4161 2.79125 20.277L1.14078 26.1691C1.11441 26.2633 1.11322 26.3629 1.13732 26.4578C1.16142 26.5527 1.20998 26.6396 1.27815 26.7099C1.34632 26.7801 1.43172 26.8313 1.52583 26.8583C1.61994 26.8852 1.71948 26.8871 1.81453 26.8636L7.95812 25.3411C9.76339 26.3048 11.8118 26.88 14 26.88C21.1067 26.88 26.88 21.1067 26.88 14C26.88 6.89333 21.1067 1.12 14 1.12ZM14 2.24C20.5013 2.24 25.76 7.49866 25.76 14C25.76 20.5013 20.5013 25.76 14 25.76C11.9157 25.76 9.96358 25.2166 8.26656 24.267C8.14244 24.1977 7.99659 24.1781 7.85859 24.2123L2.47843 25.5456L3.92109 20.3984C3.94173 20.3257 3.94743 20.2495 3.93785 20.1745C3.92826 20.0995 3.90358 20.0272 3.86531 19.962C2.83398 18.2132 2.24 16.1785 2.24 14C2.24 7.49866 7.49866 2.24 14 2.24ZM9.31984 7.27999C8.96086 7.27999 8.44818 7.41355 8.02703 7.86734C7.77407 8.1399 6.72 9.16692 6.72 10.9725C6.72 12.8549 8.02557 14.4793 8.18343 14.688H8.18453V14.6891C8.16955 14.6694 8.38489 14.9812 8.67234 15.3552C8.95979 15.7291 9.36174 16.2202 9.86671 16.7519C10.8767 17.8152 12.2966 19.0441 14.0591 19.7958C14.8707 20.1414 15.511 20.3501 15.9961 20.5023C16.8951 20.7846 17.714 20.7417 18.3291 20.6511C18.7895 20.5833 19.2958 20.3622 19.7969 20.0452C20.2979 19.7281 20.7889 19.3338 21.0055 18.7348C21.1606 18.3054 21.2394 17.9086 21.268 17.582C21.2822 17.4188 21.284 17.2747 21.2734 17.1412C21.2628 17.0078 21.2742 16.9056 21.1498 16.7016C20.8891 16.2735 20.5939 16.2623 20.2858 16.1098C20.1146 16.0251 19.6272 15.7871 19.1384 15.5542C18.6502 15.3216 18.2274 15.1155 17.967 15.0227C17.8025 14.9635 17.6017 14.8783 17.3119 14.9111C17.0221 14.9439 16.7359 15.153 16.5692 15.4C16.4113 15.6341 15.7754 16.3847 15.5816 16.6053C15.579 16.6037 15.5958 16.6115 15.5192 16.5736C15.2795 16.4549 14.9862 16.354 14.5523 16.1252C14.1184 15.8963 13.5757 15.5583 12.9817 15.0347V15.0336C12.0977 14.2553 11.4785 13.2782 11.2831 12.95C11.2963 12.9343 11.2816 12.9533 11.3094 12.9259L11.3105 12.9248C11.5101 12.7282 11.687 12.4933 11.8366 12.3211C12.0485 12.0769 12.1421 11.8616 12.2434 11.6605C12.4454 11.2596 12.3329 10.8185 12.2161 10.5864V10.5853C12.2242 10.6014 12.1529 10.4441 12.0761 10.2627C11.9991 10.0807 11.9009 9.84482 11.7961 9.59328C11.5864 9.0902 11.3523 8.52595 11.2131 8.19546V8.19437C11.0491 7.8051 10.8273 7.52466 10.5372 7.38937C10.2471 7.25408 9.99083 7.29254 9.98046 7.29203H9.97937C9.77237 7.28248 9.54522 7.27999 9.31984 7.27999ZM9.31984 8.4C9.53574 8.4 9.7486 8.40263 9.92687 8.41093C10.1103 8.42007 10.0989 8.42082 10.0636 8.40437C10.0278 8.38766 10.0764 8.38223 10.1806 8.62968C10.3169 8.95328 10.5522 9.51957 10.7625 10.0242C10.8677 10.2765 10.9661 10.5133 11.0447 10.6991C11.1233 10.8848 11.1659 10.9885 11.2153 11.0873V11.0884L11.2164 11.0895C11.2649 11.1851 11.2606 11.1239 11.2437 11.1573C11.1256 11.3919 11.1095 11.4495 10.99 11.5872C10.808 11.7969 10.6223 12.0307 10.5241 12.1275C10.4381 12.212 10.283 12.3435 10.1861 12.6011C10.0891 12.859 10.1344 13.213 10.29 13.4772C10.4972 13.829 11.1801 14.9404 12.2412 15.8747C12.9095 16.4638 13.5322 16.8537 14.0295 17.1161C14.5269 17.3785 14.932 17.5317 15.0227 17.5766C15.2379 17.6831 15.4732 17.7658 15.7467 17.733C16.0203 17.7001 16.2561 17.5341 16.4062 17.3644L16.4073 17.3633C16.6071 17.1367 17.2009 16.4588 17.4858 16.0409C17.4979 16.0452 17.4939 16.0419 17.5886 16.0759V16.077H17.5897C17.6329 16.0924 18.1744 16.3348 18.6572 16.5648C19.14 16.7949 19.63 17.034 19.7892 17.1128C20.019 17.2265 20.1276 17.3006 20.1556 17.3009C20.1575 17.3502 20.1594 17.4036 20.1523 17.4847C20.1327 17.7096 20.0726 18.0209 19.9522 18.3542C19.8932 18.5174 19.586 18.8539 19.1986 19.0991C18.8112 19.3442 18.3396 19.5174 18.165 19.5431C17.6399 19.6205 17.0165 19.6487 16.3319 19.4337C15.8571 19.2847 15.2652 19.0918 14.4987 18.7655C12.9443 18.1025 11.6231 16.9744 10.6794 15.9808C10.2075 15.4839 9.82943 15.0214 9.56046 14.6716C9.292 14.3223 9.17477 14.1406 9.07703 14.012L9.07593 14.0109C8.90243 13.7815 7.84 12.3037 7.84 10.9725C7.84 9.56367 8.49435 9.0112 8.84843 8.62968C9.03432 8.42939 9.23754 8.4 9.31984 8.4Z" fill="#C6F5F0"/>
</svg>
