<svg width="298" height="297" viewBox="0 0 298 297" fill="none" xmlns="http://www.w3.org/2000/svg">
<path d="M258.527 67.1398C257.609 65.6192 256.661 64.1282 255.666 62.6729C242.417 43.2729 220.365 29.9911 198.933 23.9738C189.546 21.3365 179.903 19.9525 170.277 19.602C107.155 17.3151 83.9645 69.1891 63.629 82.5601C43.2934 95.9369 12.0809 118.776 15.9966 166.765C18.9707 203.249 39.7949 238.141 77.8316 254.018C82.0215 255.77 86.426 257.297 91.033 258.556C99.6035 260.909 108.901 262.382 118.908 262.827C147.665 264.104 171.016 257.196 193.855 239.798C199.165 235.753 204.446 231.191 211.336 230.692C216.342 230.329 221.092 232.123 215.859 236.947C209.709 242.613 216.807 253.769 232.422 246.017C258.509 233.08 269.237 205.162 274.291 176.774C280.495 141.93 277.486 98.5981 258.527 67.1339V67.1398Z" fill="#52BFB8"/>
<path opacity="0.7" d="M258.527 67.1398C257.609 65.6192 256.661 64.1282 255.666 62.6729C242.417 43.2729 220.365 29.9911 198.933 23.9738C189.546 21.3365 179.903 19.9525 170.277 19.602C107.155 17.3151 83.9645 69.1891 63.629 82.5601C43.2934 95.9369 12.0809 118.776 15.9966 166.765C18.9707 203.249 39.7949 238.141 77.8316 254.018C82.0215 255.77 86.426 257.297 91.033 258.556C99.6035 260.909 108.901 262.382 118.908 262.827C147.665 264.104 171.016 257.196 193.855 239.798C199.165 235.753 204.446 231.191 211.336 230.692C216.342 230.329 221.092 232.123 215.859 236.947C209.709 242.613 216.807 253.769 232.422 246.017C258.509 233.08 269.237 205.162 274.291 176.774C280.495 141.93 277.486 98.5981 258.527 67.1339V67.1398Z" fill="white"/>
<g opacity="0.3">
<path d="M106.982 18.5922H19.7395V274.677H106.982V18.5922Z" stroke="black" stroke-linecap="round" stroke-linejoin="round"/>
<path d="M95.9143 131.25H65.3693V160.493H95.9143V131.25Z" stroke="black" stroke-linecap="round" stroke-linejoin="round"/>
<path d="M95.9143 65.239H65.3693V94.4816H95.9143V65.239Z" stroke="black" stroke-linecap="round" stroke-linejoin="round"/>
<path d="M95.9143 164.253H65.3693V193.496H95.9143V164.253Z" stroke="black" stroke-linecap="round" stroke-linejoin="round"/>
<path d="M95.9143 31.9275H65.3693V61.4849H95.9143V31.9275Z" stroke="black" stroke-linecap="round" stroke-linejoin="round"/>
<path d="M61.3582 31.9275H30.8132V61.4849H61.3582V31.9275Z" stroke="black" stroke-linecap="round" stroke-linejoin="round"/>
<path d="M95.9143 98.2417H65.3693V127.484H95.9143V98.2417Z" stroke="black" stroke-linecap="round" stroke-linejoin="round"/>
<path d="M61.3582 98.2417H30.8132V127.484H61.3582V98.2417Z" stroke="black" stroke-linecap="round" stroke-linejoin="round"/>
<path d="M95.9143 197.256H65.3693V222.144H95.9143V197.256Z" stroke="black" stroke-linecap="round" stroke-linejoin="round"/>
<path d="M61.3582 164.253H30.8132V193.496H61.3582V164.253Z" stroke="black" stroke-linecap="round" stroke-linejoin="round"/>
<path d="M61.3582 197.256H30.8132V222.144H61.3582V197.256Z" stroke="black" stroke-linecap="round" stroke-linejoin="round"/>
<path d="M61.3582 131.25H30.8132V160.493H61.3582V131.25Z" stroke="black" stroke-linecap="round" stroke-linejoin="round"/>
<path d="M61.3582 65.239H30.8132V94.4816H61.3582V65.239Z" stroke="black" stroke-linecap="round" stroke-linejoin="round"/>
<path d="M24.3704 19.0377V274.481" stroke="black" stroke-linecap="round" stroke-linejoin="round"/>
<path d="M194.23 18.5922H106.988V274.677H194.23V18.5922Z" stroke="black" stroke-linecap="round" stroke-linejoin="round"/>
<path d="M148.601 131.25H118.056V160.493H148.601V131.25Z" stroke="black" stroke-linecap="round" stroke-linejoin="round"/>
<path d="M148.601 65.239H118.056V94.4816H148.601V65.239Z" stroke="black" stroke-linecap="round" stroke-linejoin="round"/>
<path d="M148.601 164.253H118.056V193.496H148.601V164.253Z" stroke="black" stroke-linecap="round" stroke-linejoin="round"/>
<path d="M148.601 31.9275H118.056V61.4849H148.601V31.9275Z" stroke="black" stroke-linecap="round" stroke-linejoin="round"/>
<path d="M183.163 31.9275H152.618V61.4849H183.163V31.9275Z" stroke="black" stroke-linecap="round" stroke-linejoin="round"/>
<path d="M148.601 98.2417H118.056V127.484H148.601V98.2417Z" stroke="black" stroke-linecap="round" stroke-linejoin="round"/>
<path d="M183.163 98.2417H152.618V127.484H183.163V98.2417Z" stroke="black" stroke-linecap="round" stroke-linejoin="round"/>
<path d="M148.601 197.256H118.056V222.144H148.601V197.256Z" stroke="black" stroke-linecap="round" stroke-linejoin="round"/>
<path d="M183.163 164.253H152.618V193.496H183.163V164.253Z" stroke="black" stroke-linecap="round" stroke-linejoin="round"/>
<path d="M183.163 197.256H152.618V222.144H183.163V197.256Z" stroke="black" stroke-linecap="round" stroke-linejoin="round"/>
<path d="M183.163 131.25H152.618V160.493H183.163V131.25Z" stroke="black" stroke-linecap="round" stroke-linejoin="round"/>
<path d="M183.163 65.239H152.618V94.4816H183.163V65.239Z" stroke="black" stroke-linecap="round" stroke-linejoin="round"/>
<path d="M189.6 19.0377V274.481" stroke="black" stroke-linecap="round" stroke-linejoin="round"/>
</g>
<path d="M257.031 249.45H233.644L235.986 274.351H254.689L257.031 249.45Z" fill="#263238" stroke="#263238" stroke-miterlimit="10"/>
<path d="M245.767 253.68C245.767 253.68 255.72 216.133 267.717 189.13" stroke="#263238" stroke-linecap="round" stroke-linejoin="round"/>
<path d="M264.928 195.289C264.928 195.289 263.605 185.084 266.77 180.594C269.934 176.103 273.6 174.434 273.6 174.434C273.6 174.434 274.381 185.94 273.057 189.67C271.734 193.4 264.928 195.283 264.928 195.283V195.289Z" fill="#52BFB8"/>
<path d="M264.731 195.955C264.731 195.955 262.133 194.862 261.269 189.064C260.404 183.261 262.466 174.256 262.466 174.256C262.466 174.256 265.143 181.2 265.929 185.738C266.716 190.276 264.731 195.955 264.731 195.955Z" fill="#52BFB8"/>
<path d="M264.731 195.955C264.731 195.955 268.552 189.522 273.338 188.09C278.129 186.659 285.818 186.142 285.818 186.142C285.818 186.142 283.189 191.547 276.717 193.721C270.244 195.901 264.731 195.955 264.731 195.955Z" fill="#52BFB8"/>
<path d="M259.093 210.43C259.093 210.43 260.285 209.403 257.746 204.502C255.207 199.608 252.072 197.6 252.072 197.6C252.072 197.6 250.523 204.989 252.799 208.322C255.076 211.654 256.953 213.745 256.953 213.745C256.953 213.745 250.01 211.363 248.896 211.119C247.775 210.876 243.001 210.252 243.001 210.252C243.001 210.252 242.512 212.343 247.09 214.725C251.667 217.107 256.709 217.083 256.709 217.083C256.709 217.083 257.538 217.659 259.361 218.96C261.185 220.261 266.376 222.447 266.376 222.447C266.376 222.447 266.835 219.881 265.023 218.74C263.211 217.594 261.745 216.905 261.745 216.905C261.745 216.905 266.317 216.911 267.229 216.376C268.14 215.842 272.652 212.688 272.652 212.688C272.652 212.688 268.093 212.836 266.99 212.913C265.893 212.985 262.18 214.03 262.18 214.03C262.18 214.03 268.206 212.201 269.559 208.939C270.912 205.678 270.989 202.192 270.989 202.192C270.989 202.192 263.283 204.77 259.093 210.436V210.43Z" fill="#52BFB8"/>
<path d="M254.117 225.334C254.117 225.334 260.792 223.778 263.712 225.001C266.633 226.225 270.346 232.153 270.346 232.153C270.346 232.153 265.119 234.089 260.899 232.313C256.679 230.537 254.117 225.328 254.117 225.328V225.334Z" fill="#52BFB8"/>
<path d="M254.117 225.334C254.117 225.334 251.19 221.728 247.227 221.366C243.263 220.998 240.331 221.99 240.331 221.99C240.331 221.99 240.218 225.007 245.373 226.558C250.523 228.108 254.117 225.334 254.117 225.334Z" fill="#52BFB8"/>
<path d="M252.09 232.593C252.09 232.593 255.416 232.842 257.269 234.618C259.123 236.394 262.097 245.375 262.097 245.375C262.097 245.375 256.131 243.403 252.466 240.481C248.8 237.558 252.084 232.587 252.084 232.587L252.09 232.593Z" fill="#52BFB8"/>
<path d="M252.09 232.593C252.09 232.593 247.942 229.545 245.016 230.537C242.089 231.529 240.73 234.784 240.748 237.321C240.76 239.851 240.736 241.758 240.736 241.758C240.736 241.758 245.671 240.16 247.018 239.115C248.365 238.075 252.09 232.599 252.09 232.599V232.593Z" fill="#52BFB8"/>
<path d="M242.357 257.22C242.357 257.22 237.315 212.896 228.143 192.331" stroke="#263238" stroke-miterlimit="10"/>
<path d="M227.35 190.371C227.35 190.371 225.622 188.298 227.696 183.124C229.776 177.951 231.85 175.016 231.85 175.016C231.85 175.016 234.794 180.713 234.967 184.158C235.14 187.609 231.331 191.749 231.331 191.749C231.331 191.749 232.714 190.371 235.313 189.848C237.911 189.332 241.547 189.676 241.547 189.676C241.547 189.676 239.991 192.438 238.257 193.299C236.529 194.161 231.677 195.2 230.986 195.022C230.294 194.85 230.64 195.367 227.35 198.473C224.06 201.58 221.986 203.13 221.986 203.13C221.986 203.13 220.776 197.606 221.813 194.85C222.85 192.088 227.356 190.365 227.356 190.365L227.35 190.371Z" fill="#52BFB8"/>
<path d="M229.251 190.543C229.251 190.543 227.696 188.298 226.307 187.092C224.924 185.886 222.326 185.542 221.289 185.37C220.252 185.197 220.079 188.821 221.98 191.238C223.881 193.656 230.98 195.034 230.98 195.034L229.251 190.549V190.543Z" fill="#52BFB8"/>
<path d="M231.677 201.93C231.677 201.93 230.294 200.38 234.103 197.79C237.911 195.2 241.374 195.028 241.374 195.028C241.374 195.028 240.337 201.586 238.603 203.481C236.868 205.376 233.93 205.031 233.93 205.031C233.93 205.031 238.084 205.203 239.818 206.065C241.547 206.926 245.534 212.45 245.534 212.45C245.534 212.45 245.534 212.622 241.726 212.622C237.917 212.622 234.8 209.516 234.8 209.516C234.8 209.516 235.492 211.589 235.664 213.139C235.837 214.689 232.547 218.485 232.202 219.008C231.856 219.525 228.912 215.212 228.566 213.311C228.22 211.411 228.566 210.032 228.566 210.032C228.566 210.032 227.356 210.549 225.795 212.45C224.239 214.351 223.196 217.279 223.196 217.279C223.196 217.279 219.733 211.755 220.597 208.31C221.462 204.859 229.079 205.031 229.079 205.031C229.079 205.031 225.443 204.514 223.715 203.825C221.986 203.136 220.425 201.58 220.425 200.719C220.425 199.857 221.289 199.513 224.924 199.857C228.56 200.202 231.677 201.93 231.677 201.93Z" fill="#52BFB8"/>
<path d="M236.695 221.081C236.695 221.081 231.677 217.974 229.079 218.319C226.48 218.663 224.233 219.525 223.363 219.525C222.493 219.525 225.091 224.871 228.208 225.049C231.325 225.221 236.862 223.843 236.862 223.843C236.862 223.843 233.745 225.744 232.535 227.811C231.325 229.884 230.807 233.852 230.807 233.852C230.807 233.852 235.307 234.024 237.214 232.301C239.121 230.579 238.424 224.193 238.424 224.193C238.424 224.193 239.461 223.332 241.022 223.16C242.578 222.988 245.486 224.562 245.486 224.562C245.486 224.562 249.158 219.536 243.102 216.774C237.041 214.012 236.695 221.087 236.695 221.087V221.081Z" fill="#52BFB8"/>
<path d="M239.467 237.992C239.467 237.992 236.004 236.091 233.924 237.82C231.844 239.542 229.079 245.411 229.079 245.411C229.079 245.411 233.233 246.1 236.004 244.55C238.775 242.999 239.467 237.992 239.467 237.992Z" fill="#52BFB8"/>
<path d="M239.467 237.992C239.467 237.992 240.158 235.058 243.621 234.196C247.084 233.335 252.102 236.442 252.102 236.442C252.102 236.442 250.546 237.992 246.559 239.204C242.578 240.41 239.461 237.998 239.461 237.998L239.467 237.992Z" fill="#52BFB8"/>
<path d="M228.733 248.678H225.062V273.941H228.733V248.678Z" fill="white" stroke="#263238" stroke-linecap="round" stroke-linejoin="round"/>
<path d="M264.046 248.678H260.375V273.941H264.046V248.678Z" fill="white" stroke="#263238" stroke-linecap="round" stroke-linejoin="round"/>
<path d="M265.631 248.096H224.102V253.305H265.631V248.096Z" fill="white" stroke="#263238" stroke-linecap="round" stroke-linejoin="round"/>
<path d="M265.631 255.218H224.102V260.427H265.631V255.218Z" fill="white" stroke="#263238" stroke-linecap="round" stroke-linejoin="round"/>
<path d="M265.631 262.346H224.102V267.555H265.631V262.346Z" fill="white" stroke="#263238" stroke-linecap="round" stroke-linejoin="round"/>
<path d="M265.631 269.474H224.102V274.683H265.631V269.474Z" fill="white" stroke="#263238" stroke-linecap="round" stroke-linejoin="round"/>
<g opacity="0.3">
<path d="M282.432 18.515H211.27V112.931H282.432V18.515Z" stroke="black" stroke-linecap="round" stroke-linejoin="round"/>
<path d="M280.108 21.5919H213.589V109.848H280.108V21.5919Z" stroke="black" stroke-linecap="round" stroke-linejoin="round"/>
<path d="M213.589 86.4092C221.044 82.5601 237.166 72.3017 241.571 53.8105C245.051 39.204 250.094 28.5358 257.794 21.5978" stroke="black" stroke-linecap="round" stroke-linejoin="round"/>
<path d="M245.951 109.854C241.356 94.9925 235.587 66.1597 251.691 47.0151C261.853 34.9331 272.02 27.9715 280.114 23.9679" stroke="black" stroke-linecap="round" stroke-linejoin="round"/>
<path d="M218.011 21.5978C221.104 25.441 224.454 32.0938 223.393 42.2809C222.26 53.1927 217.296 59.3584 213.589 62.5244" stroke="black" stroke-linecap="round" stroke-linejoin="round"/>
<path d="M272.068 109.854C266.865 101.96 258.706 103.148 253.139 95.8063C246.118 86.5458 252.93 72.7531 269.04 66.3617C274.077 64.3658 277.623 61.4849 280.114 58.4674" stroke="black" stroke-linecap="round" stroke-linejoin="round"/>
<path d="M213.589 104.205C218.47 96.7804 224.591 89.7712 228.345 93.9589C231.474 97.4457 232.225 103.843 232.094 109.86" stroke="black" stroke-linecap="round" stroke-linejoin="round"/>
<path d="M230.437 21.5978C230.604 30.193 231.647 46.1419 237.023 39.4C240.772 34.7074 243.74 27.4784 245.731 21.5978" stroke="black" stroke-linecap="round" stroke-linejoin="round"/>
<path d="M280.114 34.0897C271.371 41.6038 256.173 55.5746 266.358 53.6026C271.782 52.5512 276.449 49.2248 280.114 45.5598" stroke="black" stroke-linecap="round" stroke-linejoin="round"/>
</g>
<path d="M141.735 57.3566C141.735 57.3566 140.453 52.1591 132.193 51.8681C123.932 51.5711 123.837 54.7965 121.656 55.8241C120.541 56.3468 118.205 59.4178 118.449 61.0691L123.241 58.8298C123.241 58.8298 112.316 65.4232 112.018 76.3052C111.72 87.1873 116.154 96.1864 125.011 96.1864C133.868 96.1864 137.801 93.5372 137.7 87.1695C137.604 80.7959 136.323 69.8188 138.29 63.5402C140.257 57.2675 141.735 57.3626 141.735 57.3626V57.3566Z" fill="#263238" stroke="#263238" stroke-miterlimit="10"/>
<path d="M167.941 130.033L171.177 136.365C171.177 136.365 176.035 140.707 177.28 143.689C178.526 146.665 183.347 154.779 185.124 155.355C185.714 155.545 188.235 155.973 189.111 156.222C189.981 156.471 190.857 157.339 191.477 157.463C192.097 157.588 193.223 157.838 193.968 157.463C194.713 157.089 195.464 157.713 195.214 158.455C194.964 159.198 192.347 159.697 192.347 159.697L188.61 158.954C188.61 158.954 191.721 161.063 191.227 162.18C190.726 163.297 183.628 164.413 183.008 164.413C182.388 164.413 181.548 163.546 179.557 162.061C177.566 160.57 177.054 157.446 177.054 157.446C177.054 157.446 165.825 147.413 163.954 144.93C162.088 142.447 159.841 136.739 159.841 136.365C159.841 135.99 158.846 133.264 158.846 133.264L167.935 130.038L167.941 130.033Z" fill="white" stroke="#263238" stroke-miterlimit="10"/>
<path d="M188.461 160.665C188.461 160.665 188.843 162.762 189.319 163.142C189.796 163.522 191.137 162.833 191.233 162.18C191.328 161.526 190.279 160.095 189.605 159.715C188.938 159.335 188.169 159.62 188.461 160.665Z" stroke="#263238" stroke-miterlimit="10"/>
<path d="M188.461 160.665C188.461 160.665 187.353 160.374 186.918 160.861C186.482 161.348 187.353 164.063 187.68 164.283C188.008 164.502 189.313 164.176 189.421 163.902C189.528 163.629 189.349 161.99 188.461 160.665Z" fill="white" stroke="#263238" stroke-miterlimit="10"/>
<path d="M186.536 161.948C186.536 161.948 185.499 160.481 185.118 161.568C184.736 162.655 184.957 164.443 185.171 164.77C185.392 165.096 186.423 165.203 186.59 164.609C186.751 164.009 186.59 162.708 186.536 161.948Z" fill="white" stroke="#263238" stroke-miterlimit="10"/>
<path d="M184.79 162.441C184.79 162.441 184.027 161.14 183.431 162.061C182.829 162.982 182.996 164.615 183.27 164.995C183.544 165.376 184.307 165.269 184.522 164.722C184.742 164.182 184.796 162.441 184.796 162.441H184.79Z" fill="white" stroke="#263238" stroke-miterlimit="10"/>
<path d="M104.419 127.71L103.704 135.337C103.704 135.337 102.268 138.438 101.672 141.889C101.076 145.34 101.076 163.101 101.076 166.676C101.076 170.252 100.837 175.378 101.195 177.404C101.552 179.43 102.87 181.812 103.227 182.411C103.585 183.005 105.617 183.487 106.338 183.362C107.059 183.237 108.847 181.693 108.847 181.693C108.847 181.693 108.728 180.861 107.894 180.861C107.059 180.861 106.458 180.505 106.219 180.148C105.981 179.792 106.815 176.691 106.815 176.691C106.815 176.691 107.411 179.43 107.894 179.073C108.371 178.717 108.973 179.192 108.973 177.76C108.973 176.329 108.734 174.779 108.734 174.779C108.734 174.779 109.092 173.228 108.734 171.084C108.377 168.94 106.702 167.152 106.702 165.839C106.702 164.526 111.363 151.298 112.799 146.059C114.235 140.814 114.474 136.169 114.474 136.169L115.427 130.092L104.425 127.71H104.419Z" fill="white" stroke="#263238" stroke-miterlimit="10"/>
<path d="M134.374 77.8437C134.374 77.8437 135.65 84.2054 134.088 87.6031C132.527 90.9949 125.148 94.8856 123.73 95.8063C122.311 96.727 113.085 98.6337 109.396 104.645C105.707 110.656 103.543 127.942 103.543 128.94L117.174 132.26C117.174 132.26 116.953 139.251 116.953 141.651C116.953 144.051 113.008 151.916 111.255 166.118C109.503 180.315 116.953 214.173 116.953 214.173C116.953 214.173 116.297 224.003 115.856 230.335C115.415 236.667 116.953 262.447 116.953 262.447C116.953 262.447 115.856 266.813 114.539 267.906C113.222 268.999 108.842 271.618 108.621 272.711C108.4 273.804 109.277 274.024 110.373 274.458C111.47 274.897 126.811 274.458 126.811 274.458C126.811 274.458 128.563 273.365 128.343 269.432C128.122 265.5 128.122 263.534 128.122 263.534C128.122 263.534 128.998 260.041 129.439 258.289C129.88 256.543 129.66 253.484 129.88 250.864C130.101 248.244 132.95 213.513 132.95 210.454C132.95 207.395 137.116 172.23 137.116 172.23L139.744 209.801C139.744 209.801 141.276 259.685 141.937 261.217C142.593 262.744 143.469 263.837 143.469 263.837L143.028 266.023L143.469 269.735C143.469 269.735 142.372 274.541 143.469 274.541H156.837C156.837 274.541 159.031 272.575 158.155 270.609C157.278 268.642 156.182 266.676 156.182 266.676L154.65 262.31C154.65 262.31 155.967 259.691 155.967 258.378V252.046C155.967 248.987 158.596 205.215 158.596 205.215C158.596 205.215 161.009 185.34 161.665 171.137C162.321 156.935 158.816 147.11 157.499 144.051C156.182 140.992 155.747 137.933 155.747 137.933L156.188 131.161L158.161 134.44L172.846 129.635L164.734 107.134C164.734 107.134 160.133 100.582 157.719 98.6159C155.306 96.6497 149.191 95.2538 147.2 93.8936C145.656 92.8422 144.685 85.6489 144.685 85.6489L134.368 77.8378L134.374 77.8437Z" fill="#52BFB8" stroke="#263238" stroke-miterlimit="10"/>
<path d="M158.166 134.44L172.852 129.635L164.74 107.134C164.74 107.134 160.139 100.582 157.725 98.6159C155.312 96.6497 149.197 95.2538 147.206 93.8936C145.662 92.8422 144.691 85.6489 144.691 85.6489L134.374 77.8378C134.374 77.8378 135.65 84.1995 134.088 87.5972C132.527 90.9889 125.148 94.8796 123.73 95.8003C122.311 96.721 113.085 98.6278 109.396 104.639C105.707 110.65 103.543 127.936 103.543 128.934L117.174 132.254C117.174 132.254 116.953 139.245 116.953 141.645C116.953 143.6 114.349 149.159 112.429 158.806C118.115 160.588 127.872 163.005 138.016 162.643C148.267 162.281 156.694 160.968 161.355 160.089C160.497 151.874 158.441 146.231 157.499 144.045C156.182 140.986 155.747 137.927 155.747 137.927L156.188 131.155L158.161 134.434L158.166 134.44Z" fill="#52BFB8" stroke="#263238" stroke-miterlimit="10"/>
<path d="M148.863 133.43L138.6 140.041" stroke="#263238" stroke-miterlimit="10"/>
<path d="M152.755 130.929L150.645 132.284" stroke="#263238" stroke-miterlimit="10"/>
<path d="M149.513 135.925L143.904 139.156" stroke="#263238" stroke-miterlimit="10"/>
<path d="M140.37 101.229C140.37 101.229 142.14 107.11 142.14 113.579" stroke="#263238" stroke-miterlimit="10"/>
<path d="M142.778 101.835C142.778 102.168 142.51 102.435 142.176 102.435C141.842 102.435 141.574 102.168 141.574 101.835C141.574 101.503 141.842 101.235 142.176 101.235C142.51 101.235 142.778 101.503 142.778 101.835Z" stroke="#263238" stroke-miterlimit="10"/>
<path d="M143.803 106.421C143.803 106.754 143.535 107.021 143.201 107.021C142.867 107.021 142.599 106.754 142.599 106.421C142.599 106.088 142.867 105.821 143.201 105.821C143.535 105.821 143.803 106.088 143.803 106.421Z" stroke="#263238" stroke-miterlimit="10"/>
<path d="M144.22 111.613C144.553 111.613 144.822 111.344 144.822 111.013C144.822 110.681 144.553 110.413 144.22 110.413C143.888 110.413 143.618 110.681 143.618 111.013C143.618 111.344 143.888 111.613 144.22 111.613Z" stroke="#263238" stroke-miterlimit="10"/>
<path d="M135.739 98.699C140.787 101.402 146.205 98.9842 149.507 94.9865C148.553 94.6123 147.736 94.25 147.212 93.8936C145.668 92.8422 144.697 85.6489 144.697 85.6489L134.38 77.8378C134.38 77.8378 135.656 84.1995 134.094 87.5972C133.391 89.1238 131.507 90.7513 129.523 92.165C130.303 94.0421 132.02 96.7091 135.739 98.699Z" fill="white" stroke="#263238" stroke-miterlimit="10"/>
<path d="M139.816 88.5892C139.816 88.5892 142.372 91.4582 143.439 92.7293C144.506 94.0064 146.211 94.8559 146.211 94.8559L146.64 90.8226L139.822 88.5951L139.816 88.5892Z" fill="#263238" stroke="#263238" stroke-miterlimit="10"/>
<path d="M157.863 111.155C158.143 110.086 158.411 109.136 158.411 109.136" stroke="#263238" stroke-miterlimit="10"/>
<path d="M156.194 131.167C156.194 131.167 158.411 126.57 158.518 123.647C158.625 120.725 157.261 114.672 157.261 113.941C157.261 113.751 157.338 113.347 157.451 112.848" stroke="#263238" stroke-miterlimit="10"/>
<path d="M120.922 113.311L117.466 130.217L118.616 116.965" stroke="#263238" stroke-miterlimit="10"/>
<path d="M156.194 266.682L154.662 262.316C154.662 262.316 150.115 259.323 147.85 260.291C145.585 261.259 145.102 263.195 145.102 263.195L143.487 263.849L143.046 266.035L143.487 269.747C143.487 269.747 142.39 274.553 143.487 274.553H156.855C156.855 274.553 159.049 272.587 158.172 270.62C157.296 268.654 156.2 266.688 156.2 266.688L156.194 266.682Z" fill="white" stroke="#263238" stroke-miterlimit="10"/>
<path d="M128.361 269.432C128.194 266.468 128.152 264.621 128.146 263.89L125.202 264.098C125.202 264.098 123.908 260.873 121.316 260.231C118.729 259.584 116.965 262.441 116.965 262.441C116.965 262.441 115.868 266.807 114.551 267.9C113.234 268.993 108.853 271.612 108.633 272.705C108.412 273.798 109.289 274.018 110.385 274.452C111.482 274.891 126.823 274.452 126.823 274.452C126.823 274.452 128.575 273.359 128.355 269.427L128.361 269.432Z" fill="white" stroke="#263238" stroke-miterlimit="10"/>
<path d="M132.121 71.7552C132.121 71.7552 131.412 64.7341 134.255 60.1247C137.098 55.5152 144.214 54.3807 148.982 55.8716C153.75 57.3626 157.66 61.6869 158.304 64.8767C158.941 68.0665 158.017 72.8185 157.594 74.0956C157.165 75.3727 156.241 75.937 156.241 77.1428C156.241 78.3486 156.456 82.1086 155.032 84.3064C153.607 86.5042 151.05 90.686 149.84 91.4701C148.63 92.2541 146.711 92.0344 145.859 91.7552C145.007 91.4701 144.506 91.1909 144.506 91.1909C144.506 91.1909 139.667 88.7792 138.105 87.0804C136.538 85.3816 135.685 83.2491 134.905 81.3364C134.124 79.4237 133.48 77.1547 133.48 77.1547L132.127 71.7671L132.121 71.7552Z" fill="white" stroke="#263238" stroke-miterlimit="10"/>
<path d="M158.298 64.8767C157.66 61.6869 153.744 57.3626 148.976 55.8716C144.208 54.3807 137.098 55.5152 134.249 60.1247C131.406 64.7341 132.115 71.7552 132.115 71.7552L133.087 75.6221L135.53 74.2322C135.53 74.2322 137.807 73.2402 137.95 71.8918C138.093 70.5434 138.874 70.3296 140.012 69.2663C141.151 68.2031 141.294 62.174 147.48 61.3246C152.433 60.6415 155.926 62.2393 158.399 65.5182C158.369 65.2984 158.333 65.0786 158.292 64.8707L158.298 64.8767Z" fill="#263238" stroke="#263238" stroke-miterlimit="10"/>
<path d="M136.317 79.697C136.317 79.697 135.179 80.8315 133.969 80.1959C132.759 79.5604 131.126 77.8556 130.768 74.5232C130.411 71.1909 132.193 69.8425 134.112 70.9771C136.031 72.1116 136.389 75.3727 136.389 75.3727" fill="white"/>
<path d="M136.317 79.697C136.317 79.697 135.179 80.8315 133.969 80.1959C132.759 79.5604 131.126 77.8556 130.768 74.5232C130.411 71.1909 132.193 69.8425 134.112 70.9771C136.031 72.1116 136.389 75.3727 136.389 75.3727" stroke="#263238" stroke-miterlimit="10"/>
<path d="M154.602 73.4184L152.826 74.054C152.826 74.054 151.903 77.6002 151.903 78.3783C151.903 79.1564 153.255 81.0751 153.041 81.7819C152.826 82.4888 150.621 83.1303 150.126 82.8452" stroke="#263238" stroke-miterlimit="10"/>
<path d="M145.281 83.9144C145.281 83.9144 146.348 86.0409 150.049 85.8983" stroke="#263238" stroke-miterlimit="10"/>
<path d="M143.857 76.2577C143.857 76.2577 146.276 77.3923 148.696 76.8933" stroke="#263238" stroke-miterlimit="10"/>
<path d="M149.62 72.07C149.62 72.07 146.491 70.9355 144 72.1413" stroke="#263238" stroke-miterlimit="10"/>
<path d="M147.2 77.1784L146.842 77.6774C146.842 77.6774 146.485 77.8912 145.275 77.3923" stroke="#263238" stroke-miterlimit="10"/>
<path d="M152.475 77.1962C152.475 77.1962 154.155 78.0932 155.777 77.5883" stroke="#263238" stroke-miterlimit="10"/>
<path d="M154.775 77.8793L154.555 78.3189C154.555 78.3189 154.322 78.5149 153.482 78.1288" stroke="#263238" stroke-miterlimit="10"/>
<path d="M155.169 73.6322C155.169 73.6322 156.45 73.4184 156.736 74.3391" stroke="#263238" stroke-miterlimit="10"/>
<path d="M100.402 231.927C100.402 231.927 94.3647 229.278 88.1365 230.068C80.8414 230.995 76.1807 235.176 73.5404 241.52C70.9002 247.864 71.0015 259.174 77.7303 266.278C80.8116 269.527 84.4174 271.951 87.7014 273.151C90.4311 274.149 93.3217 274.63 96.2242 274.63H140.245C143.457 274.63 146.437 272.943 148.07 270.187C150.484 266.112 153.267 259.655 152.248 252.658C150.538 240.897 142.623 237.648 141.848 237.339C141.073 237.03 100.396 231.921 100.396 231.921L100.402 231.927Z" fill="#9E9E9E" stroke="#263238" stroke-miterlimit="10"/>
<path d="M127.604 117.648C127.604 117.648 130.131 120.54 130.888 123.308C131.644 126.077 132.401 127.211 132.908 127.965C133.415 128.72 136.317 130.484 136.317 132.117C136.317 133.751 134.297 134.636 134.297 134.636C134.297 134.636 134.547 140.047 134.678 141.687C134.803 143.32 135.06 144.081 134.172 144.96C133.283 145.839 131.394 146.849 131.394 146.849C131.394 146.849 125.333 153.27 124.576 154.024C123.819 154.779 106.642 148.108 106.642 148.108C106.642 148.108 107.149 146.474 107.524 145.589L107.906 144.71C107.906 144.71 102.351 134.393 101.088 129.106C99.824 123.819 108.287 116.014 111.065 114.256C113.842 112.492 122.812 112.997 125.208 113.246C127.604 113.496 128.742 113.876 128.742 115.26V116.644L130.256 116.139C130.256 116.139 129.624 118.153 127.604 117.648Z" fill="white" stroke="#263238" stroke-linecap="round" stroke-linejoin="round"/>
<path d="M123.688 117.648C125.708 117.772 127.604 117.648 127.604 117.648C129.624 118.153 130.256 116.139 130.256 116.139L128.742 116.644V115.26C128.742 113.876 127.604 113.496 125.208 113.246C122.806 112.997 113.842 112.492 111.065 114.256C108.287 116.02 99.824 123.819 101.088 129.106C102.351 134.393 107.906 144.71 107.906 144.71C107.906 144.71 108.788 144.71 111.565 143.831C114.343 142.952 115.356 139.299 115.356 139.299C115.356 139.299 112.197 138.164 111.44 136.905C110.683 135.646 111.565 131.494 113.079 130.989C114.593 130.484 116.87 132.248 117.501 132.373C118.133 132.498 118.383 131.993 118.89 131.238C119.397 130.484 118.64 129.349 118.64 128.72C118.64 128.09 121.673 124.692 122.299 123.308C122.931 121.924 118.008 119.281 118.258 118.022C118.509 116.763 121.667 117.517 123.688 117.642V117.648Z" fill="#263238" stroke="#263238" stroke-linecap="round" stroke-linejoin="round"/>
<path d="M127.472 146.849C127.472 146.849 124.063 147.098 121.161 145.34C118.258 143.576 117.877 141.942 117.877 141.942" stroke="#263238" stroke-linecap="round" stroke-linejoin="round"/>
<path d="M127.729 136.905C127.729 136.905 128.867 138.414 131.644 138.289" stroke="#263238" stroke-linecap="round" stroke-linejoin="round"/>
<path d="M130.727 127.698C130.971 128.423 130.911 129.094 130.584 129.207C130.256 129.32 129.791 128.821 129.547 128.102C129.302 127.383 129.362 126.706 129.69 126.593C130.017 126.48 130.482 126.979 130.727 127.698Z" fill="#263238"/>
<path d="M127.627 125.803C127.627 125.803 128.521 124.021 130.309 124.645" stroke="#263238" stroke-linecap="round" stroke-linejoin="round"/>
<path d="M178.961 261.918C178.961 261.918 180.296 266.189 183.842 268.708C187.394 271.226 192.454 271.909 193.354 272.682C194.254 273.448 192.711 274.345 192.711 274.345H172.018L171.886 262.304L178.955 261.918H178.961Z" fill="#263238" stroke="#263238" stroke-miterlimit="10"/>
<path d="M172.917 212.468C172.917 212.468 179.599 210.805 180.63 212.082C181.661 213.365 183.973 247.567 184.873 253.585C185.773 259.608 185.517 261.402 185.517 261.402L172.792 264.989C172.792 264.989 169.836 249.872 166.624 243.98C163.411 238.087 157.112 223.356 161.355 217.974C165.599 212.593 172.923 212.468 172.923 212.468H172.917Z" fill="#263238" stroke="#263238" stroke-miterlimit="10"/>
<path d="M131.418 158.182C131.418 158.182 141.657 159.251 144.035 159.014C146.413 158.776 150.228 156.994 156.533 156.875C162.845 156.757 188.437 156.163 191.054 156.163C193.67 156.163 207.426 155.622 207.426 155.622C207.426 155.622 214.447 155.147 213.976 156.097C213.499 157.048 212.069 157.642 210.406 157.998C208.737 158.354 206.836 159.186 206.836 159.186L203.743 160.018C203.743 160.018 206.121 160.612 206.836 160.612C207.551 160.612 210.406 161.087 209.81 161.681C209.214 162.275 208.975 162.512 207.432 162.512C205.888 162.512 203.743 162.037 202.908 162.037C202.074 162.037 201.001 162.512 198.861 162.75C196.716 162.988 191.775 162.815 191.775 162.815L183.085 164.003C183.085 164.003 166.779 168.512 159.633 170.531C152.493 172.551 149.274 172.67 149.274 172.67C149.274 172.67 146.539 173.026 139.512 174.214C132.491 175.402 122.848 174.808 122.848 174.808L131.418 158.2V158.182Z" fill="#263238" stroke="#263238" stroke-linecap="round" stroke-linejoin="round"/>
<path d="M105.647 146.373C105.647 146.373 128.504 153.965 131.835 156.341C135.167 158.711 138.856 171.529 139.333 176.632C139.81 181.734 143.857 198.58 144.214 206.884C144.572 215.188 143.499 214 143.499 214C143.499 214 118.497 218.746 113.502 220.41C108.502 222.073 100.289 230.615 100.051 230.258C99.8121 229.902 99.8121 223.023 100.766 219.103C101.719 215.182 102.554 204.983 102.554 204.983C102.554 204.983 97.5533 185.168 97.3149 178.764C97.0765 172.355 99.9313 158.354 101.243 154.202C102.554 150.05 104.813 146.017 105.647 146.373Z" fill="white" stroke="#263238" stroke-linecap="round" stroke-linejoin="round"/>
<path d="M127.616 172.509L141.258 192.272C141.258 192.272 138.022 177.558 138.022 176.994C138.022 176.43 137.879 170.965 137.879 170.965L127.616 172.509Z" fill="#263238" stroke="#263238" stroke-linecap="round" stroke-linejoin="round"/>
<path d="M131.841 156.341C131.841 156.341 142.08 157.41 144.458 157.172C146.837 156.935 150.651 155.153 156.957 155.034C163.268 154.915 188.86 154.321 191.477 154.321C194.093 154.321 207.432 155.628 207.432 155.628C207.432 155.628 214.453 155.153 213.982 156.103C213.505 157.054 212.075 157.648 210.412 158.004C208.743 158.36 206.842 159.192 206.842 159.192L203.749 160.024C203.749 160.024 206.127 160.618 206.842 160.618C207.557 160.618 210.412 161.093 209.816 161.687C209.22 162.281 208.981 162.518 207.438 162.518C205.894 162.518 203.749 162.043 202.914 162.043C202.08 162.043 201.007 162.518 198.867 162.756C196.722 162.994 192.198 160.974 192.198 160.974L183.508 162.162C183.508 162.162 167.202 166.67 160.056 168.69C152.916 170.71 149.697 170.828 149.697 170.828C149.697 170.828 146.962 171.185 139.935 172.373C132.914 173.561 123.271 172.967 123.271 172.967L131.841 156.359V156.341Z" fill="white" stroke="#263238" stroke-linecap="round" stroke-linejoin="round"/>
<path d="M211.002 157.172C211.002 157.172 208.028 157.529 207.313 157.766C206.597 158.004 204.339 158.717 202.789 158.954C201.239 159.192 199.457 159.43 199.457 159.43C199.457 159.43 197.312 160.736 195.053 160.38C192.794 160.024 192.198 159.311 192.198 159.311" stroke="#263238" stroke-miterlimit="10"/>
<path d="M108.15 156.103C108.15 156.103 116.488 154.392 120.529 154.202C124.57 154.018 133.742 157.048 133.742 157.048L121.363 176.507C121.363 176.507 111.482 176.032 111.005 176.032" fill="white"/>
<path d="M108.15 156.103C108.15 156.103 116.488 154.392 120.529 154.202C124.57 154.018 133.742 157.048 133.742 157.048L121.363 176.507C121.363 176.507 111.482 176.032 111.005 176.032" stroke="#263238" stroke-linecap="round" stroke-linejoin="round"/>
<path d="M120.291 177.695C120.291 177.695 117.436 190.864 109.575 198.224" stroke="#263238" stroke-miterlimit="10"/>
<path d="M123.509 175.325C123.509 175.325 122.555 183.51 118.747 192.408" stroke="#263238" stroke-miterlimit="10"/>
<path d="M107.387 219.394C107.387 219.394 116.858 216.145 124.153 215.527" stroke="#263238" stroke-miterlimit="10"/>
<path d="M122.758 213.983C122.758 213.983 128.659 213.519 132.693 214.446" stroke="#263238" stroke-miterlimit="10"/>
<path d="M118.27 193.596C118.27 193.596 117.555 195.497 116.959 196.798" stroke="#263238" stroke-miterlimit="10"/>
<path d="M127.794 175.8C127.794 175.8 128.986 182.566 129.225 186.837" stroke="#263238" stroke-miterlimit="10"/>
<path d="M166.969 263.801C166.969 263.801 166.969 273.893 167.488 274.327C168.006 274.761 170.259 274.672 170.516 274.672H189.987C189.987 274.672 191.542 274.41 191.632 273.377C191.721 272.343 187.74 271.22 187.388 271.22C187.037 271.22 176.052 265.269 175.707 264.752C175.361 264.235 174.497 261.906 174.497 261.906L166.969 263.801Z" fill="white" stroke="#263238" stroke-miterlimit="10"/>
<path d="M142.474 242.607C142.474 242.607 155.055 239.887 160.58 235.658L158.012 230.531L142.474 242.607Z" fill="#263238" stroke="#263238" stroke-linecap="round" stroke-linejoin="round"/>
<path d="M100.056 230.258C100.056 230.258 100.247 235.485 103.507 238.271C106.767 241.057 116.858 242.756 121.209 242.601C125.553 242.447 142.48 242.601 142.48 242.601C142.48 242.601 146.515 241.212 149.155 239.816C151.795 238.426 157.541 234.398 157.541 234.398C157.541 234.398 158.78 241.823 159.406 244.455C160.026 247.086 164.061 259.002 164.061 259.002L165.146 265.191L182.376 261.479C182.376 261.479 180.826 250.026 179.736 241.984C178.651 233.935 175.391 216.608 174.455 213.668C173.525 210.727 173.68 210.727 171.04 210.727C168.4 210.727 159.084 211.5 149.769 212.741C140.453 213.977 129.433 215.527 121.203 217.541C112.972 219.554 118.407 218.004 111.732 220.79C105.057 223.576 100.051 230.258 100.051 230.258H100.056Z" fill="#52BFB8" stroke="#263238" stroke-miterlimit="10"/>
<path d="M157.535 234.404C157.535 234.404 158.464 230.383 159.865 228.369C161.26 226.356 163.9 224.039 163.9 224.039" stroke="#263238" stroke-miterlimit="10"/>
<path d="M162.97 222.952C162.97 222.952 158.935 225.583 157.845 228.369" stroke="#263238" stroke-miterlimit="10"/>
<path d="M175.391 227.288C175.391 227.288 172.286 238.271 170.11 242.453" stroke="#263238" stroke-miterlimit="10"/>
<path d="M175.236 233.632C175.236 233.632 172.906 252.818 170.11 258.236" stroke="#263238" stroke-miterlimit="10"/>
<path d="M111.422 231.31C111.422 231.31 116.393 222.798 122.442 218.931" stroke="#263238" stroke-miterlimit="10"/>
<path d="M117.787 220.012C117.787 220.012 114.837 222.952 113.443 225.429" stroke="#263238" stroke-miterlimit="10"/>
<path d="M7.93872 274.677H285.657" stroke="#263238" stroke-miterlimit="10"/>
</svg>
