<svg width="297" height="297" viewBox="0 0 297 297" fill="none" xmlns="http://www.w3.org/2000/svg">
<path d="M270.864 141.521C267.93 166.35 256.608 195.218 233.953 208.482C199.738 228.524 202.607 259.352 135.83 272.753C126.09 274.754 116.162 275.692 106.219 275.551C101.356 275.464 96.5028 275.067 91.6899 274.363C49.2486 268.167 20.689 238.663 10.2109 203.083C-3.60557 156.222 23.9263 125.56 42.174 107.086C60.4217 88.6129 73.7867 31.0543 139.329 17.3923C149.327 15.2612 159.538 14.2906 169.759 14.4995C193.08 15.0935 218.515 22.7264 236.115 38.711C237.442 39.899 238.729 41.1424 239.976 42.4413C264.443 67.52 274.838 107.668 270.864 141.521Z" fill="#52BFB8"/>
<path opacity="0.7" d="M270.864 141.521C267.93 166.35 256.608 195.218 233.953 208.482C199.738 228.524 202.607 259.352 135.83 272.753C126.09 274.754 116.162 275.692 106.219 275.551C101.356 275.464 96.5028 275.067 91.6899 274.363C49.2486 268.167 20.689 238.663 10.2109 203.083C-3.60557 156.222 23.9263 125.56 42.174 107.086C60.4217 88.6129 73.7867 31.0543 139.329 17.3923C149.327 15.2612 159.538 14.2906 169.759 14.4995C193.08 15.0935 218.515 22.7264 236.115 38.711C237.442 39.899 238.729 41.1424 239.976 42.4413C264.443 67.52 274.838 107.668 270.864 141.521Z" fill="white"/>
<path d="M57.9209 129.955C57.9209 129.955 55.9607 138.153 56.4062 140.647C56.8517 143.142 60.3266 145.013 62.3759 144.211C64.4252 143.409 67.4546 139.667 67.4546 139.667L65.6726 132.45L57.9209 129.955Z" fill="white" stroke="#263238" stroke-linejoin="round"/>
<path d="M75.1826 245.969C75.1826 245.969 73.6144 249.878 72.3136 251.185C71.0127 252.492 67.223 254.969 66.9676 256.531C66.7121 258.093 68.9278 259.014 71.4047 259.667C73.8817 260.32 77.2735 259.014 78.4496 258.479C79.6257 257.944 84.5797 257.541 85.8865 257.018C87.1933 256.495 86.1478 247.514 86.1478 247.514L75.1826 245.969Z" fill="white" stroke="#263238" stroke-linejoin="round"/>
<path d="M87.1814 242.869C87.1814 242.869 86.4033 249.914 85.9934 252.783C85.5835 255.652 85.2093 258.622 87.1814 259.406C89.1535 260.19 95.7944 260.837 97.618 259.798C99.4415 258.758 99.1861 255.39 98.01 251.482C96.8339 247.573 95.7944 244.698 95.7944 244.698C95.7944 244.698 93.3174 240.784 87.1814 242.869Z" fill="white" stroke="#263238" stroke-linejoin="round"/>
<path d="M67.3537 163.029C67.3537 163.029 67.8764 198.776 69.0525 208.951C70.2286 219.127 75.0519 242.447 75.0519 242.447C75.0519 242.447 73.7451 243.356 73.8639 244.663C73.9827 245.969 74.5173 248.185 74.5173 248.185C74.5173 248.185 78.1704 249.617 80.2553 249.747C82.3403 249.878 86.5221 248.559 86.5221 248.559L85.2153 165.88L67.3537 163.029Z" fill="#52BFB8" stroke="#263238" stroke-linejoin="round"/>
<path d="M85.2271 165.898L86.0112 242.578L85.4885 244.924L86.5339 248.577C86.5339 248.577 89.9078 245.678 91.8799 246.201C93.852 246.724 97.517 248.868 97.517 248.868C98.2253 246.683 98.8201 244.462 99.299 242.215C99.5603 240.392 98.6456 236.085 99.0376 233.216C99.4297 230.347 102.762 207.9 102.762 207.9L104.295 164.069L85.2271 165.898Z" fill="#52BFB8" stroke="#263238" stroke-linejoin="round"/>
<path d="M81.6215 98.0575C81.6215 98.0575 65.0489 102.513 64.6925 103.047C64.3361 103.582 54.5945 130.312 54.5945 130.312L67.8704 134.767L65.0489 164.538C71.7836 167.477 79.0889 168.877 86.4329 168.637C98.1882 168.102 105.673 166.409 105.673 166.409L106.831 131.577L118.461 132.807C118.461 132.807 110.662 104.669 109.771 103.51C108.88 102.352 94.6242 98.699 94.6242 98.699L81.6215 98.0575Z" fill="#52BFB8" stroke="#263238" stroke-linejoin="round"/>
<path d="M105.138 129.866L106.831 112.937" stroke="#263238" stroke-linejoin="round"/>
<path d="M67.9001 121.936V109.195" stroke="#263238" stroke-linejoin="round"/>
<path d="M78.2357 99.2158L85.8983 132.985L97.3922 99.6613" stroke="#263238" stroke-linejoin="round"/>
<path d="M89.4623 133.341H82.4234V145.815H89.4623V133.341Z" fill="white" stroke="#263238" stroke-linejoin="round"/>
<path d="M80.9978 91.2859L81.0869 99.5722C81.0869 99.5722 84.6509 106.166 85.4528 107.413C86.4329 108.928 88.3931 111.571 88.3931 111.571L95.2479 99.6316L95.4261 93.9292L80.9978 91.2859Z" fill="white" stroke="#263238" stroke-linejoin="round"/>
<path d="M83.0234 72.1057C83.0234 72.1057 80.4989 73.9768 80.2137 76.7923C80.0383 78.8545 79.9907 80.9256 80.0712 82.9937C80.0712 82.9937 79.0614 81.6988 78.2892 83.5877C78.0142 84.3232 77.9703 85.1252 78.1635 85.8863C78.3567 86.6474 78.7778 87.3313 79.3703 87.8467C79.8166 88.1086 80.2295 88.4237 80.5999 88.7852C80.5999 88.7852 80.6711 94.2619 82.9759 96.9349C85.2806 99.6079 88.9159 100.107 92.569 99.0257C95.4617 98.1763 96.323 94.4104 96.727 91.1612C97.1309 87.912 97.6595 80.2019 97.3744 76.9052C97.0893 73.6085 93.6144 70.7454 90.5909 70.3415C85.7677 69.6524 83.0234 72.1057 83.0234 72.1057Z" fill="white" stroke="#263238" stroke-linejoin="round"/>
<path d="M90.092 90.0623C86.8538 89.797 83.6377 90.7882 81.1107 92.8303C81.4028 94.3158 82.0329 95.7141 82.9521 96.917C85.2628 99.5841 88.8921 100.089 92.5452 99.0079C94.8381 98.3367 95.8479 95.83 96.3884 93.2045C94.769 91.3901 92.5155 90.2655 90.092 90.0623Z" fill="#263238" stroke="#263238" stroke-linejoin="round"/>
<path d="M97.1606 82.7798C97.1606 82.7798 98.3901 82.3462 98.4614 83.9322C98.5327 85.5182 97.018 87.2527 97.018 87.2527L97.1606 82.7798Z" stroke="#263238" stroke-linejoin="round"/>
<path d="M90.5969 70.2999C85.7677 69.6524 83.0234 72.0819 83.0234 72.0819C83.0234 72.0819 80.4989 73.953 80.2138 76.7686C80.0383 78.8308 79.9907 80.9018 80.0712 82.9699L80.0415 82.9402L80.285 83.4748L81.9423 81.5978C82.5363 80.9503 81.7285 79.2931 81.9423 77.8496C82.1561 76.4062 84.0332 74.4579 85.334 74.3153C86.6349 74.1728 86.5577 75.4677 88.6545 75.9726C90.7513 76.4775 93.6263 75.5449 94.351 74.6777C95.0756 73.8104 96.4418 75.3251 96.3706 78.2833C96.2993 81.2414 96.0082 81.4552 96.2993 82.1799C96.5804 82.7867 96.9185 83.3655 97.3091 83.9084C97.3091 83.9084 97.3091 83.8193 97.3447 83.6649C97.4893 81.3925 97.5012 79.1136 97.3804 76.8398C97.0893 73.5431 93.6203 70.686 90.5969 70.2999Z" fill="#263238" stroke="#263238" stroke-linejoin="round"/>
<path d="M87.3536 85.0846C87.3536 85.5657 87.0626 85.9518 86.7062 85.9518C86.3498 85.9518 86.0528 85.5657 86.0528 85.0846C86.0288 84.8843 86.0836 84.6826 86.2055 84.5219C86.3274 84.3612 86.5069 84.2542 86.7062 84.2233C87.0626 84.2233 87.3536 84.6094 87.3536 85.0846Z" fill="#263238"/>
<path d="M94.2797 85.0846C94.2797 85.5657 93.9886 85.9518 93.6263 85.9518C93.2639 85.9518 92.9788 85.5657 92.9788 85.0846C92.9788 84.6034 93.2699 84.2233 93.6263 84.2233C93.8256 84.2542 94.0051 84.3612 94.127 84.5219C94.2489 84.6826 94.3036 84.8843 94.2797 85.0846Z" fill="#263238"/>
<path d="M85.9637 88.2625C87.6269 88.2625 88.9752 86.9141 88.9752 85.2509C88.9752 83.5876 87.6269 82.2393 85.9637 82.2393C84.3004 82.2393 82.9521 83.5876 82.9521 85.2509C82.9521 86.9141 84.3004 88.2625 85.9637 88.2625Z" stroke="#263238" stroke-linejoin="round"/>
<path d="M97.1249 85.2509C97.1249 85.8465 96.9483 86.4288 96.6174 86.924C96.2865 87.4193 95.8161 87.8053 95.2658 88.0332C94.7155 88.2612 94.11 88.3208 93.5258 88.2046C92.9416 88.0884 92.405 87.8016 91.9838 87.3804C91.5627 86.9592 91.2758 86.4226 91.1596 85.8384C91.0434 85.2542 91.1031 84.6487 91.331 84.0984C91.559 83.5481 91.945 83.0778 92.4402 82.7468C92.9355 82.4159 93.5177 82.2393 94.1134 82.2393C94.9121 82.2393 95.6781 82.5566 96.2429 83.1214C96.8076 83.6862 97.1249 84.4522 97.1249 85.2509Z" stroke="#263238" stroke-linejoin="round"/>
<path d="M90.5256 83.7896L90.6028 91.1434L87.1398 89.4148" fill="white"/>
<path d="M90.5256 83.7896L90.6028 91.1434L87.1398 89.4148" stroke="#263238" stroke-linejoin="round"/>
<path d="M88.9753 85.2509C88.9753 85.2509 90.2405 84.1876 91.1018 85.2509" stroke="#263238" stroke-linejoin="round"/>
<path d="M82.9521 85.2509L80.285 83.4986" stroke="#263238" stroke-linejoin="round"/>
<path d="M86.3438 91.5057C86.3438 91.5057 87.4249 93.2877 90.383 92.8066" stroke="white" stroke-linejoin="round"/>
<path d="M81.4433 124.609L89.7593 120.653C89.8927 120.583 90.048 120.565 90.1937 120.605C90.3393 120.645 90.4643 120.739 90.5434 120.867C90.5971 120.94 90.6334 121.024 90.6496 121.113C90.6658 121.202 90.6614 121.294 90.6367 121.381C90.6121 121.468 90.5678 121.549 90.5074 121.616C90.447 121.683 90.3719 121.736 90.288 121.77L81.6215 125.488L81.4433 124.609Z" fill="white" stroke="#263238" stroke-linejoin="round"/>
<path d="M92.7412 131.624C92.7412 131.624 86.8428 123.76 86.4626 123.457C86.0825 123.154 80.3682 123.76 80.3682 123.76L79.0376 127.591L81.5087 132.729L84.6509 131.624C86.0057 133.341 87.8238 134.633 89.89 135.349C93.1214 136.359 105.025 140.998 109.688 141.099C114.351 141.2 116.543 139.988 117.493 137.772C118.444 135.557 117.968 133.335 114.256 131.523C110.543 129.712 102.833 131.523 99.0257 131.523C95.2182 131.523 92.7412 131.624 92.7412 131.624Z" fill="white" stroke="#263238" stroke-linejoin="round"/>
<path d="M84.6509 131.624L88.7436 131.019" stroke="#263238" stroke-linejoin="round"/>
<path d="M81.0335 131.322C81.0335 131.322 85.1261 128.5 85.5063 128.5C85.8865 128.5 88.0783 128.601 88.0783 128.601" stroke="#263238" stroke-linejoin="round"/>
<path d="M80.0831 129.706L83.1303 126.278L85.7973 125.679" stroke="#263238" stroke-linejoin="round"/>
<path d="M79.2277 128.298L81.6037 124.77L84.841 124.063" stroke="#263238" stroke-linejoin="round"/>
<path d="M58.812 121.936L69.0644 141.865L88.0368 142.786L77.5111 122.394L58.812 121.936Z" fill="#263238" stroke="#263238" stroke-linejoin="round"/>
<path d="M62.465 134.054C62.465 134.054 62.7323 135.747 63.8015 135.836C64.8707 135.925 68.9693 135.212 69.2366 134.41C69.2976 134.273 69.3156 134.121 69.2882 133.973C69.2608 133.826 69.1893 133.69 69.0832 133.584C68.977 133.478 68.8412 133.406 68.6937 133.379C68.5461 133.351 68.3937 133.369 68.2565 133.43C67.716 133.608 62.9996 133.252 62.465 134.054Z" fill="white" stroke="#263238" stroke-linejoin="round"/>
<path d="M63.8015 135.836C63.931 136.448 64.2414 137.007 64.6925 137.44C65.4053 138.063 68.9693 137.262 70.1276 136.727C71.2859 136.192 71.1968 135.48 70.8404 135.301C70.484 135.123 68.4347 135.301 68.4347 135.301L63.8015 135.836Z" fill="white" stroke="#263238" stroke-linejoin="round"/>
<path d="M65.4944 137.707C65.4944 137.707 65.8508 138.954 66.6527 139.311C67.4546 139.667 69.6821 138.687 70.7513 138.153C71.8205 137.618 70.1573 136.727 70.1573 136.727C70.1573 136.727 66.2963 137.974 65.4944 137.707Z" fill="white" stroke="#263238" stroke-linejoin="round"/>
<path d="M67.4546 139.667C67.4546 139.667 66.92 140.291 68.2565 140.38C69.593 140.469 70.7513 138.153 70.7513 138.153L67.4546 139.667Z" fill="white" stroke="#263238" stroke-linejoin="round"/>
<path d="M178.556 80.4632C178.556 80.4632 178.461 85.1737 178.943 86.231C179.424 87.2883 181.057 88.5357 180.766 89.9791C180.475 91.4225 179.709 93.3412 180.095 93.4421C180.481 93.5431 182.471 92.961 182.471 92.961C182.471 92.961 187.086 98.901 187.763 98.6337C188.441 98.3664 192.379 94.4757 192.379 94.4757L195.646 102.643L203.433 92.9372L197.374 85.8092C196.553 83.9061 195.521 82.101 194.297 80.4276C192.664 78.408 187.282 76.1924 183.338 77.0596C179.394 77.9269 178.556 80.4632 178.556 80.4632Z" fill="white" stroke="#263238" stroke-linejoin="round"/>
<path d="M185.09 93.4421C186.008 92.776 186.683 91.8294 187.015 90.7454" stroke="#263238" stroke-linejoin="round"/>
<path d="M180.861 86.6111C180.963 86.1326 181.232 85.7059 181.619 85.4068C182.006 85.1077 182.487 84.9556 182.976 84.9776" stroke="#263238" stroke-linejoin="round"/>
<path d="M183.344 87.8704C183.582 88.3456 183.528 88.8565 183.219 89.0109C182.91 89.1653 182.471 88.9099 182.227 88.4169C181.984 87.9239 182.043 87.4309 182.352 87.2764C182.661 87.122 183.101 87.3952 183.344 87.8704Z" fill="#263238"/>
<path d="M194.238 86.4211C194.288 86.637 194.288 86.8614 194.239 87.0775C194.189 87.2935 194.092 87.4956 193.953 87.6685C193.492 88.0784 192.923 88.3465 192.313 88.4407L192.509 90.5553" stroke="#263238" stroke-linejoin="round"/>
<path d="M191.161 69.2842C191.161 69.2842 189.302 67.2052 192.088 65.1262C194.874 63.0472 200.808 67.6269 200.808 67.6269L199.299 67.8348C199.299 67.8348 204.182 69.2901 203.712 73.1452C203.243 77.0002 199.412 75.438 196.62 73.9768C193.828 72.5155 191.161 69.2842 191.161 69.2842Z" fill="#263238" stroke="#263238" stroke-linejoin="round"/>
<path d="M178.651 81.5206C178.651 81.5206 176.246 79.3049 176.442 76.7092C176.638 74.1134 180.095 69.5812 186.54 68.8268C192.985 68.0724 200.291 73.1511 201.253 78.4436C201.521 80.0233 201.427 81.6433 200.976 83.1809C200.525 84.7185 199.73 86.1333 198.651 87.318L194.238 86.4211C194.238 86.4211 194.143 82.768 192.795 81.6156C191.446 80.4632 190.009 82.863 190.009 82.863C190.009 82.863 186.641 83.3441 185.102 82.3819C183.564 81.4196 185.488 79.596 183.469 79.7861C181.449 79.9762 178.651 81.5206 178.651 81.5206Z" fill="#263238" stroke="#263238" stroke-linejoin="round"/>
<path d="M201.033 188.298C201.033 188.298 203.7 197.897 204.597 200.029C205.494 202.162 221.229 242.37 221.229 242.37C221.229 242.37 215.367 248.945 212.319 250.187C209.272 251.428 207.876 252.141 208.589 253.032C209.302 253.923 214.63 254.095 218.687 254.095C222.744 254.095 224.199 252.313 228.821 251.078C228.821 251.078 231.31 250.009 232.016 249.296C232.723 248.583 227.288 239.382 227.288 239.382C227.288 239.382 222.898 216.216 222.364 210.549C221.829 204.882 219.34 198.818 218.455 197.042C217.57 195.266 216.673 193.133 216.495 192.599C216.317 192.064 212.765 164.681 212.765 164.681L201.033 188.298Z" fill="white" stroke="#263238" stroke-linejoin="round"/>
<path d="M232.088 249.308C232.474 248.916 231.019 245.999 229.605 243.415C226.688 246.124 221.604 246.462 221.604 246.462C221.61 245.718 221.426 244.984 221.069 244.33C220.818 244.019 220.521 243.746 220.19 243.522C218.36 245.465 214.588 249.278 212.361 250.193C209.338 251.44 207.918 252.147 208.631 253.038C209.343 253.929 214.672 254.107 218.729 254.107C222.786 254.107 224.241 252.325 228.862 251.084C228.892 251.084 231.375 250.015 232.088 249.308Z" fill="white" stroke="#263238" stroke-linejoin="round"/>
<path d="M201.033 188.298C201.033 188.298 203.7 197.897 204.597 200.029C205.191 201.449 212.04 221.324 216.953 232.545C218.895 231.999 222.792 230.929 225.453 229.415C224.954 223.172 222.649 213.507 222.37 210.514C221.835 204.829 219.346 198.782 218.461 197.006C217.576 195.23 216.679 193.098 216.501 192.563C216.323 192.028 212.771 164.645 212.771 164.645L201.033 188.298Z" fill="#263238" stroke="#263238" stroke-linejoin="round"/>
<path d="M193.899 158.865C193.899 158.865 187.704 192.925 187.704 198.616C187.704 204.306 184.859 242.334 184.859 242.334C184.859 242.334 178.996 245.536 176.329 246.599C173.662 247.662 169.397 248.203 169.397 249.266C169.397 250.329 177.22 252.111 179.709 252.29C182.198 252.468 189.807 253.887 190.727 253.709C191.648 253.531 192.509 253.353 192.509 249.444C192.491 247.306 192.61 245.17 192.866 243.047C192.866 243.047 193.751 237.184 200.154 214.078C203.071 203.54 201.217 197.012 201.217 195.771C201.217 194.529 212.949 167.152 213.662 165.376C214.375 163.599 216.501 159.869 215.616 155.248C214.731 150.627 213.305 150.627 213.305 150.627H194.832L193.899 158.865Z" fill="white" stroke="#263238" stroke-linejoin="round"/>
<path d="M200.178 214.078C203.095 203.54 201.241 197.012 201.241 195.771C201.241 194.529 212.973 167.152 213.686 165.376C214.398 163.599 216.525 159.869 215.64 155.248C214.755 150.627 213.329 150.627 213.329 150.627H194.832L193.917 158.865C193.917 158.865 187.704 192.925 187.704 198.616C187.704 202.245 186.546 219.067 185.708 230.757L195.266 232.444C196.353 228.096 197.915 222.156 200.178 214.078Z" fill="#263238" stroke="#263238" stroke-linejoin="round"/>
<path d="M169.397 249.266C169.397 250.335 177.22 252.111 179.709 252.29C182.198 252.468 189.807 253.887 190.727 253.709C191.648 253.531 192.509 253.353 192.509 249.444C192.509 248.452 192.509 247.549 192.569 246.759C189.819 247.146 185.756 246.421 185.756 246.421C185.984 245.431 186.104 244.419 186.112 243.403C186.112 241.806 184.865 242.334 184.865 242.334C184.865 242.334 179.002 245.536 176.335 246.599C173.668 247.662 169.397 248.203 169.397 249.266Z" stroke="#263238" stroke-linejoin="round"/>
<path d="M190.864 148.251L182.607 160.451C182.607 160.451 178.099 160.232 177.054 160.493C176.008 160.754 172.468 165.839 172.468 165.839C172.468 165.839 172.581 165.637 173.062 166.843C173.418 167.698 178.455 167.437 178.455 167.437C179.388 166.801 178.176 165.857 178.954 165.376C179.913 164.806 181.012 164.518 182.126 164.544L193.715 156.299L190.864 148.251Z" fill="#263238" stroke="#263238" stroke-linejoin="round"/>
<path d="M203.065 91.5829C203.065 91.5829 189.159 109.89 188.09 112.575C187.021 115.26 189.278 148.417 189.159 149.997C189.041 151.577 189.427 161.36 189.427 161.36H204.805C204.805 161.36 205.209 158.283 205.34 157.885C205.471 157.487 206.676 161.093 206.676 161.093C207.599 161.546 208.657 161.641 209.646 161.36C211.517 160.962 218.735 160.558 218.735 160.558L213.923 132.213C213.923 132.213 214.458 108.542 211.785 101.592C210.089 97.3683 207.016 93.8414 203.065 91.5829Z" fill="#C9C9C9" stroke="#263238" stroke-linejoin="round"/>
<path d="M190.971 139.156L191.013 141.954" stroke="#263238" stroke-linejoin="round"/>
<path d="M190.739 124.918L190.941 137.535" stroke="#263238" stroke-linejoin="round"/>
<path d="M193.353 126.017L194.315 134.398" stroke="#263238" stroke-linejoin="round"/>
<path d="M264.021 254.107H37.1131V260.79H264.021V254.107Z" fill="#263238" stroke="#263238" stroke-linejoin="round"/>
<path d="M67.4487 164.645H63.8075V260.689H67.4487V164.645Z" fill="white" stroke="#263238" stroke-linejoin="round"/>
<path d="M154.006 164.645H150.365V260.689H154.006V164.645Z" fill="white" stroke="#263238" stroke-linejoin="round"/>
<path d="M240.564 164.645H236.923V260.689H240.564V164.645Z" fill="white" stroke="#263238" stroke-linejoin="round"/>
<path d="M266.451 162.613H39.5426V165.661H266.451V162.613Z" fill="white" stroke="#263238" stroke-linejoin="round"/>
<path d="M200.125 125.013L200.255 131.809C200.255 131.809 189.961 157.238 189.029 157.909C188.096 158.58 183.813 160.047 182.607 160.451C181.402 160.855 180.499 166.676 180.499 167.021C180.499 167.365 181.788 169.343 181.877 169.599C181.966 169.854 183.166 169.688 183.166 169.688C183.369 169.85 183.614 169.951 183.873 169.98C184.131 170.01 184.392 169.966 184.627 169.854C184.827 169.951 185.046 170.001 185.269 170.001C185.491 170.001 185.71 169.951 185.91 169.854L186.504 169.516C186.504 169.516 187.532 169.854 187.793 169.254C188.112 168.067 188.37 166.863 188.565 165.649C188.565 165.649 191.654 164.015 192.515 162.554C193.124 161.386 193.585 160.147 193.888 158.865C193.888 158.865 209.926 133.525 210.032 132.325C210.139 131.126 210.466 125.791 210.466 125.791L200.125 125.013Z" fill="white" stroke="#263238" stroke-linejoin="round"/>
<path d="M183.166 169.688L182.221 166.421L183.166 162.815" stroke="#263238" stroke-linejoin="round"/>
<path d="M184.621 169.854L184.11 166.504L184.883 163.415" stroke="#263238" stroke-linejoin="round"/>
<path d="M186.516 169.516L185.999 166.338L186.771 163.671" stroke="#263238" stroke-linejoin="round"/>
<path d="M198.925 108.167L198.788 126.486L211.892 126.884L208.951 105.625" fill="#C9C9C9"/>
<path d="M198.925 108.167L198.788 126.486L211.892 126.884L208.951 105.625" stroke="#263238" stroke-linejoin="round"/>
<path d="M7.85266 260.784H291.44" stroke="#263238" stroke-linejoin="round"/>
</svg>
