<svg width="428" height="306" viewBox="0 0 428 306" fill="none" xmlns="http://www.w3.org/2000/svg">
<path d="M385.579 106.347C378.798 91.8362 369.896 78.4168 359.165 66.5305C357.127 64.2743 355.016 62.0854 352.831 59.9638C327.879 35.8326 292.361 21.983 257.943 26.3711C234.452 29.376 212.545 40.4471 193.823 54.9392C181.851 64.1988 170.534 75.1352 156.116 79.7252C137.828 85.527 118.104 80.0496 98.923 79.9639C69.2565 79.8293 39.217 94.1011 22.9408 118.93C8.21148 141.403 5.8208 171.476 16.8632 195.987C27.9056 220.497 51.9714 238.68 78.5319 242.511C95.2667 244.959 112.344 242.034 129.201 243.386C153.811 245.363 176.672 256.238 200.176 263.809C242.976 277.573 291.126 280.045 331.816 260.938C365.298 245.216 392.513 212.639 397.581 175.418C400.785 151.868 395.521 127.7 385.579 106.347Z" fill="#52BFB8"/>
<path opacity="0.7" d="M385.579 106.347C378.798 91.8362 369.896 78.4168 359.165 66.5305C357.127 64.2743 355.016 62.0854 352.831 59.9638C327.879 35.8326 292.361 21.983 257.943 26.3711C234.452 29.376 212.545 40.4471 193.823 54.9392C181.851 64.1988 170.534 75.1352 156.116 79.7252C137.828 85.527 118.104 80.0496 98.923 79.9639C69.2565 79.8293 39.217 94.1011 22.9408 118.93C8.21148 141.403 5.8208 171.476 16.8632 195.987C27.9056 220.497 51.9714 238.68 78.5319 242.511C95.2667 244.959 112.344 242.034 129.201 243.386C153.811 245.363 176.672 256.238 200.176 263.809C242.976 277.573 291.126 280.045 331.816 260.938C365.298 245.216 392.513 212.639 397.581 175.418C400.785 151.868 395.521 127.7 385.579 106.347Z" fill="white"/>
<path d="M287.983 264.109H414.549" stroke="#263238" stroke-miterlimit="10"/>
<path d="M46.4686 264.109H282.48" stroke="#263238" stroke-miterlimit="10"/>
<path d="M35.738 264.109H40.9657" stroke="#263238" stroke-miterlimit="10"/>
<path d="M164.988 48.0909H159.192V50.8633H164.988V48.0909Z" stroke="#263238" stroke-miterlimit="10"/>
<path d="M171.793 48.0909H165.997V50.8633H171.793V48.0909Z" stroke="#263238" stroke-miterlimit="10"/>
<path d="M178.598 48.0909H172.802V50.8633H178.598V48.0909Z" stroke="#263238" stroke-miterlimit="10"/>
<path d="M185.403 48.0909H179.607V50.8633H185.403V48.0909Z" stroke="#263238" stroke-miterlimit="10"/>
<path d="M192.203 48.0909H186.406V50.8633H192.203V48.0909Z" stroke="#263238" stroke-miterlimit="10"/>
<path d="M199.008 48.0909H193.211V50.8633H199.008V48.0909Z" stroke="#263238" stroke-miterlimit="10"/>
<path d="M205.813 48.0909H200.017V50.8633H205.813V48.0909Z" stroke="#263238" stroke-miterlimit="10"/>
<path d="M212.612 48.0909H206.816V50.8633H212.612V48.0909Z" stroke="#263238" stroke-miterlimit="10"/>
<path d="M164.988 52.632H159.192V55.4043H164.988V52.632Z" stroke="#263238" stroke-miterlimit="10"/>
<path d="M171.793 52.632H165.997V55.4043H171.793V52.632Z" stroke="#263238" stroke-miterlimit="10"/>
<path d="M178.598 52.632H172.802V55.4043H178.598V52.632Z" stroke="#263238" stroke-miterlimit="10"/>
<path d="M185.403 52.632H179.607V55.4043H185.403V52.632Z" stroke="#263238" stroke-miterlimit="10"/>
<path d="M192.203 52.632H186.406V55.4043H192.203V52.632Z" stroke="#263238" stroke-miterlimit="10"/>
<path d="M199.008 52.632H193.211V55.4043H199.008V52.632Z" stroke="#263238" stroke-miterlimit="10"/>
<path d="M205.813 52.632H200.017V55.4043H205.813V52.632Z" stroke="#263238" stroke-miterlimit="10"/>
<path d="M212.612 52.632H206.816V55.4043H212.612V52.632Z" stroke="#263238" stroke-miterlimit="10"/>
<path d="M164.988 57.173H159.192V59.9454H164.988V57.173Z" stroke="#263238" stroke-miterlimit="10"/>
<path d="M171.793 57.173H165.997V59.9454H171.793V57.173Z" stroke="#263238" stroke-miterlimit="10"/>
<path d="M178.598 57.173H172.802V59.9454H178.598V57.173Z" stroke="#263238" stroke-miterlimit="10"/>
<path d="M185.403 57.173H179.607V59.9454H185.403V57.173Z" stroke="#263238" stroke-miterlimit="10"/>
<path d="M192.203 57.173H186.406V59.9454H192.203V57.173Z" stroke="#263238" stroke-miterlimit="10"/>
<path d="M199.008 57.173H193.211V59.9454H199.008V57.173Z" stroke="#263238" stroke-miterlimit="10"/>
<path d="M205.813 57.173H200.017V59.9454H205.813V57.173Z" stroke="#263238" stroke-miterlimit="10"/>
<path d="M212.612 57.173H206.816V59.9454H212.612V57.173Z" stroke="#263238" stroke-miterlimit="10"/>
<path d="M164.988 61.7141H159.192V64.4864H164.988V61.7141Z" stroke="#263238" stroke-miterlimit="10"/>
<path d="M171.793 61.7141H165.997V64.4864H171.793V61.7141Z" stroke="#263238" stroke-miterlimit="10"/>
<path d="M191.701 61.7141H172.802V64.4864H191.701V61.7141Z" stroke="#263238" stroke-miterlimit="10"/>
<path d="M199.008 61.7141H193.211V64.4864H199.008V61.7141Z" stroke="#263238" stroke-miterlimit="10"/>
<path d="M205.813 61.7141H200.017V64.4864H205.813V61.7141Z" stroke="#263238" stroke-miterlimit="10"/>
<path d="M212.612 61.7141H206.816V64.4864H212.612V61.7141Z" stroke="#263238" stroke-miterlimit="10"/>
<path d="M219.154 95.1599C219.154 95.1599 234.886 73.1279 258.897 60.5084" stroke="#263238" stroke-miterlimit="10"/>
<path d="M242.327 71.3898L243.471 53.9172" stroke="#263238" stroke-miterlimit="10"/>
<path d="M236.611 76.4572L253.254 77.9749" stroke="#263238" stroke-miterlimit="10"/>
<path d="M242.664 62.4546C242.664 62.4546 238.689 60.3738 238.879 53.9355C239.071 49.9716 240.681 46.209 243.416 43.3357C245.478 46.3738 246.719 49.8951 247.017 53.5561C247.39 59.4252 242.664 62.4546 242.664 62.4546Z" stroke="#263238" stroke-miterlimit="10"/>
<path d="M229.426 75.3249C229.426 75.3249 225.458 73.2441 225.642 66.8059C225.835 62.8411 227.447 59.0785 230.185 56.2061C232.242 59.246 233.478 62.7668 233.774 66.4265C234.177 72.2955 229.426 75.3249 229.426 75.3249Z" stroke="#263238" stroke-miterlimit="10"/>
<path d="M246.063 77.216C246.958 76.1906 248.064 75.3718 249.305 74.816C250.547 74.2602 251.894 73.9807 253.254 73.9969C257.98 73.9969 262.706 80.4351 262.706 80.4351C259.453 81.6417 255.983 82.1566 252.52 81.9468C246.821 81.5673 246.063 77.216 246.063 77.216Z" stroke="#263238" stroke-miterlimit="10"/>
<path d="M251.737 65.1045C251.737 65.1045 249.848 59.2354 255.895 56.7752C259.39 55.2987 263.32 55.2307 266.864 56.5855C266.864 56.5855 266.864 62.834 261.361 65.2943C255.858 67.7545 251.737 65.1045 251.737 65.1045Z" stroke="#263238" stroke-miterlimit="10"/>
<path d="M229.995 82.5159L229.616 67.9442" stroke="#263238" stroke-miterlimit="10"/>
<path d="M361.898 56.255H332.629V74.7129H349.211L348.667 83.1402L355.173 74.7129H361.898V56.255Z" stroke="#263238" stroke-miterlimit="10"/>
<path d="M377.582 77.522H357.49V90.1966H368.869L368.496 95.98L372.965 90.1966H377.582V77.522Z" stroke="#263238" stroke-miterlimit="10"/>
<path d="M342.846 65.484C342.846 65.8023 342.752 66.1135 342.575 66.3782C342.399 66.6429 342.147 66.8492 341.854 66.971C341.56 67.0928 341.237 67.1247 340.925 67.0626C340.613 67.0005 340.326 66.8472 340.101 66.6221C339.876 66.397 339.723 66.1102 339.661 65.798C339.599 65.4857 339.631 65.1621 339.753 64.868C339.874 64.5739 340.08 64.3225 340.345 64.1457C340.609 63.9688 340.92 63.8744 341.238 63.8744C341.45 63.8736 341.659 63.9147 341.855 63.9953C342.05 64.0759 342.228 64.1944 342.377 64.344C342.527 64.4936 342.645 64.6714 342.726 64.8671C342.806 65.0627 342.847 65.2724 342.846 65.484Z" stroke="#263238" stroke-miterlimit="10"/>
<path d="M349.658 65.4839C349.656 65.8008 349.561 66.1102 349.385 66.3731C349.208 66.636 348.957 66.8405 348.665 66.961C348.372 67.0814 348.05 67.1123 347.739 67.0497C347.429 66.9872 347.144 66.834 346.921 66.6095C346.697 66.385 346.545 66.0993 346.484 65.7884C346.423 65.4775 346.455 65.1554 346.576 64.8628C346.698 64.5702 346.903 64.3201 347.166 64.1442C347.43 63.9683 347.739 63.8744 348.056 63.8744C348.267 63.8744 348.475 63.9161 348.67 63.997C348.865 64.078 349.042 64.1966 349.191 64.3462C349.339 64.4957 349.457 64.6732 349.538 64.8685C349.618 65.0637 349.658 65.2729 349.658 65.4839Z" stroke="#263238" stroke-miterlimit="10"/>
<path d="M356.463 65.4839C356.462 65.8008 356.367 66.1102 356.19 66.3731C356.013 66.636 355.763 66.8405 355.47 66.961C355.177 67.0814 354.855 67.1123 354.545 67.0497C354.234 66.9872 353.949 66.834 353.726 66.6095C353.503 66.385 353.351 66.0993 353.289 65.7884C353.228 65.4775 353.26 65.1554 353.382 64.8628C353.503 64.5702 353.708 64.3201 353.972 64.1442C354.235 63.9683 354.544 63.8744 354.861 63.8744C355.072 63.8744 355.281 63.9161 355.475 63.997C355.67 64.078 355.847 64.1966 355.996 64.3462C356.145 64.4957 356.263 64.6732 356.343 64.8685C356.423 65.0637 356.464 65.2729 356.463 65.4839Z" stroke="#263238" stroke-miterlimit="10"/>
<path d="M40.0975 110.105H62.2557V124.083H49.703L50.1127 130.46L45.1907 124.083H40.0975V110.105Z" stroke="#263238" stroke-miterlimit="10"/>
<path d="M28.2235 126.207H43.4359V135.803H34.8209L35.1021 140.185L31.7209 135.803H28.2235V126.207Z" stroke="#263238" stroke-miterlimit="10"/>
<path d="M55.7378 118.312C56.4098 118.312 56.9546 117.767 56.9546 117.094C56.9546 116.421 56.4098 115.876 55.7378 115.876C55.0658 115.876 54.5211 116.421 54.5211 117.094C54.5211 117.767 55.0658 118.312 55.7378 118.312Z" stroke="#263238" stroke-miterlimit="10"/>
<path d="M50.5774 118.312C51.2494 118.312 51.7941 117.767 51.7941 117.094C51.7941 116.421 51.2494 115.876 50.5774 115.876C49.9054 115.876 49.3606 116.421 49.3606 117.094C49.3606 117.767 49.9054 118.312 50.5774 118.312Z" stroke="#263238" stroke-miterlimit="10"/>
<path d="M45.4169 118.312C46.0889 118.312 46.6336 117.767 46.6336 117.094C46.6336 116.421 46.0889 115.876 45.4169 115.876C44.7449 115.876 44.2002 116.421 44.2002 117.094C44.2002 117.767 44.7449 118.312 45.4169 118.312Z" stroke="#263238" stroke-miterlimit="10"/>
<path d="M67.6362 68.7888C67.5373 68.4848 67.4918 68.1659 67.5017 67.8463C67.5017 64.4742 70.1431 64.1743 70.1431 60.331C70.1431 59.2294 69.7029 58.8071 68.9202 58.8071C68.1376 58.8071 67.6974 59.2294 67.6974 60.331V62.0017H65.4229V60.484C65.4229 58.036 66.6457 56.6039 68.9936 56.6039C71.3415 56.6039 72.5582 58.0176 72.5582 60.484C72.5582 64.4926 69.6967 65.1107 69.6967 67.932C69.6946 68.2198 69.7233 68.5071 69.7823 68.7888H67.6362ZM69.8557 69.872V72.216H67.5262V69.8782L69.8557 69.872Z" stroke="#263238" stroke-miterlimit="10"/>
<path d="M147.354 232.988C147.255 232.682 147.21 232.361 147.22 232.04C147.22 228.668 149.861 228.368 149.861 224.524C149.861 223.423 149.421 223.007 148.638 223.007C147.856 223.007 147.415 223.423 147.415 224.524V226.201H145.129V224.684C145.129 222.236 146.352 220.803 148.693 220.803C151.035 220.803 152.258 222.211 152.258 224.684C152.258 228.692 149.396 229.31 149.396 232.132C149.394 232.42 149.424 232.707 149.488 232.988H147.354ZM149.58 234.072V236.403H147.244V234.072H149.58Z" stroke="#263238" stroke-miterlimit="10"/>
<path d="M121.864 165.656H157.7V190.944H121.864V263.925H94.0988V87.0876H167.531V112.351H121.864V165.656Z" fill="#52BFB8" stroke="#263238" stroke-miterlimit="10"/>
<path d="M164.486 93.9297V109.291H118.807V168.716H140.818" stroke="#263238" stroke-miterlimit="10"/>
<path d="M97.156 117.302V90.1476H164.486V92.6201" stroke="#263238" stroke-miterlimit="10"/>
<path d="M97.156 247.548V120.717" stroke="#263238" stroke-miterlimit="10"/>
<path d="M118.807 206.06V260.865H97.156V251.226" stroke="#263238" stroke-miterlimit="10"/>
<path d="M118.807 196.868V202.119" stroke="#263238" stroke-miterlimit="10"/>
<path d="M144.493 168.716H154.642V187.859H118.807V194.506" stroke="#263238" stroke-miterlimit="10"/>
<path d="M267.494 263.925H239.478L234.685 231.844H200.61L195.816 263.925H170.326L198.592 87.0876H239.228L267.494 263.925ZM204.144 207.841H230.9L217.522 118.416L204.144 207.841Z" fill="#52BFB8" stroke="#263238" stroke-miterlimit="10"/>
<path d="M176.636 243.809L191.237 152.455M239.815 245.51L237.32 228.784H197.974L193.211 260.865H173.909L176.091 247.303M260.805 241.361L263.923 260.865H242.126L240.218 248.117M244.706 140.674L260.267 238.068M191.946 148.018L201.197 90.1476H236.623L243.825 135.172M231.597 191.391L220.591 115.986H214.544L200.604 210.901H234.452L232.257 195.877" stroke="#263238" stroke-miterlimit="10"/>
<path d="M277.845 129.53C277.845 101.237 292.734 85.068 319.991 85.068C347.249 85.068 362.143 101.237 362.143 129.53V221.483C362.143 231.336 360.376 239.671 356.842 246.244C358.102 249.525 360.125 250.033 364.668 250.033H367.187V274.788H363.403C351.033 274.788 343.225 270.241 339.428 262.664C333.189 264.879 326.611 265.989 319.991 265.945C292.734 265.945 277.845 249.782 277.845 221.483V129.53ZM305.604 223.251C305.604 235.883 311.162 240.681 319.991 240.681C328.82 240.681 334.378 235.883 334.378 223.251V127.779C334.378 115.148 328.826 110.35 319.991 110.35C311.156 110.35 305.604 115.148 305.604 127.779V223.251Z" fill="#52BFB8" stroke="#263238" stroke-miterlimit="10"/>
<path d="M349.309 268.699C346.219 267.043 343.721 264.465 342.162 261.324L340.939 258.876L338.377 259.812C332.474 261.911 326.249 262.959 319.985 262.909C307.353 262.909 297.57 259.323 290.918 252.254C289.923 251.192 289.001 250.064 288.16 248.876M357.074 237.585C356.361 240.087 355.381 242.506 354.152 244.8L353.485 246.024L353.987 247.334C355.949 252.432 359.875 253.044 364.13 253.08V271.728H363.403C359.828 271.792 356.265 271.286 352.849 270.229M359.086 139.359V221.483C359.12 225.727 358.72 229.964 357.894 234.127M281.165 123.294C282.076 112.938 285.348 104.713 290.948 98.8135C297.576 91.7143 307.359 88.128 319.991 88.128C332.623 88.128 342.412 91.7143 349.065 98.789C355.717 105.864 359.086 116.2 359.086 129.53V135.423M285.653 244.653C282.492 238.405 280.903 230.651 280.903 221.483V129.53C280.903 128.679 280.903 127.841 280.945 127.008M302.547 221.813V223.251C302.547 240.192 312.036 243.741 319.991 243.741C327.946 243.741 337.435 240.192 337.435 223.251V138.312M302.547 154.065V218.398M337.435 134.108V127.761C337.435 110.827 327.952 107.271 319.991 107.271C312.03 107.271 302.547 110.827 302.547 127.761V149.328" stroke="#263238" stroke-miterlimit="10"/>
<path d="M326.209 137.7C326.209 137.7 330.905 138.642 333.718 140.925C336.53 143.208 338.407 148.704 337.068 152.192C335.729 155.681 335.369 155.454 336.977 157.468C338.585 159.481 337.246 162.976 337.246 162.976L326.925 159.756C326.996 157.273 327.2 154.795 327.536 152.333C328.068 148.71 327.799 142.002 326.191 140.124L326.209 137.7Z" fill="#263238" stroke="#263238" stroke-linecap="round" stroke-linejoin="round"/>
<path d="M311.645 223.992L313.388 233.386C313.193 237.223 313.553 241.067 314.458 244.8C315.931 250.308 317.007 262.646 317.007 262.646C317.007 262.646 314.727 264.519 312.312 266.128C309.896 267.738 308.429 269.219 311.78 269.219C315.13 269.219 316.873 268.276 318.878 267.475C320.884 266.673 322.498 266.251 322.498 265.192C322.498 264.133 321.428 259.684 321.428 259.684C321.428 259.684 321.832 243.992 321.832 238.876C321.853 235.942 321.537 233.016 320.89 230.155V225.094L311.645 223.992Z" fill="white" stroke="#263238" stroke-linecap="round" stroke-linejoin="round"/>
<path d="M318.878 267.487C320.89 266.679 322.498 266.263 322.498 265.204C322.464 264.663 322.39 264.125 322.278 263.595C321.33 264.066 320.248 264.629 319.551 265.069C318.077 266.012 316.066 266.948 314.861 266.948C313.965 266.854 313.097 266.584 312.305 266.153C309.896 267.756 308.429 269.213 311.78 269.213C315.13 269.213 316.873 268.289 318.878 267.487Z" fill="#263238" stroke="#263238" stroke-linecap="round" stroke-linejoin="round"/>
<path d="M319.416 226.972L319.82 233.276C319.82 233.276 319.013 240.92 319.82 246.128C320.627 251.336 320.621 261.287 320.621 262.897C320.621 264.506 319.398 266.251 317.27 268.129C317.27 268.129 315.528 270.143 316.335 271.349C317.142 272.554 322.902 270.278 323.06 268.937C323.219 267.597 324.534 264.653 324.534 263.705V259.421C324.534 258.484 328.288 245.877 327.885 241.312C327.481 236.746 327.481 230.045 327.481 230.045L327.616 225.351C327.616 225.351 321.697 227.242 319.416 226.972Z" fill="white" stroke="#263238" stroke-linecap="round" stroke-linejoin="round"/>
<path d="M321.293 268.827C319.331 269.751 318.236 267.989 318.004 267.481C317.778 267.707 317.533 267.928 317.27 268.154C317.27 268.154 315.528 270.167 316.335 271.373C317.142 272.579 322.902 270.302 323.06 268.962C323.219 267.622 324.534 264.678 324.534 263.729C323.886 265.51 322.755 268.136 321.293 268.827Z" fill="#263238" stroke="#263238" stroke-linecap="round" stroke-linejoin="round"/>
<path d="M310.838 185.516C310.838 185.516 305.745 196.789 305.335 202.823C304.926 208.857 308.557 224.824 308.557 224.824C308.557 224.824 315.124 227.884 320.615 227.64C323.876 227.497 327.098 226.864 330.171 225.761C330.171 225.761 334.996 211.685 333.522 203.362C332.049 195.038 328.429 186.458 328.429 186.458L311.217 184.31L310.838 185.516Z" fill="#263238" stroke="#263238" stroke-linecap="round" stroke-linejoin="round"/>
<path d="M318.75 157.076C318.75 157.076 321.024 155.736 322.767 155.736H325.451C325.451 155.736 326.674 160.564 326.674 161.103C326.674 161.641 321.581 186.323 321.581 186.323L311.933 185.381C311.933 185.381 311.933 169.824 313.272 165.124C314.611 160.424 318.75 157.076 318.75 157.076Z" fill="white" stroke="#263238" stroke-linecap="round" stroke-linejoin="round"/>
<path d="M311.217 137.847C311.217 137.847 310.282 143.483 311.486 147.376C312.691 151.268 316.041 155.424 317.386 155.558C318.382 155.561 319.357 155.281 320.199 154.75L319.704 156.543L318.634 162.847L323.458 163.251C323.458 163.251 325.47 156.14 325.47 155.736C325.47 155.332 325.427 154.353 325.427 154.353L324.889 148.985C325.627 147.771 326.299 146.516 326.9 145.228C327.304 144.157 326.362 142.412 326.362 142.412C326.362 142.412 327.328 136.611 324.088 133.691C320.064 130.068 313.082 133.287 311.352 135.032C309.621 136.776 311.217 137.847 311.217 137.847Z" fill="white" stroke="#263238" stroke-linecap="round" stroke-linejoin="round"/>
<path d="M320.181 154.75L322.021 154.212L319.38 158.869L320.181 154.75Z" fill="#263238" stroke="#263238" stroke-linecap="round" stroke-linejoin="round"/>
<path d="M324.057 133.691C319.777 130.068 313.051 133.287 311.321 135.032C309.591 136.776 311.187 137.847 311.187 137.847C311.187 137.847 312.128 136.911 314.537 137.847C316.946 138.783 318.817 143.618 320.572 144.157C321.672 144.488 322.791 144.756 323.923 144.958C323.923 144.958 323.923 142.945 324.858 142.676C325.337 142.528 325.832 142.439 326.332 142.412C326.332 142.412 327.402 136.507 324.057 133.691Z" fill="#263238" stroke="#263238" stroke-linecap="round" stroke-linejoin="round"/>
<path d="M314.28 143.887L315.357 145.497L314.818 149.787L316.561 150.056" stroke="#263238" stroke-linecap="round" stroke-linejoin="round"/>
<path d="M316.023 151.531C316.387 151.6 316.763 151.575 317.115 151.458C317.467 151.342 317.783 151.137 318.035 150.864" stroke="#263238" stroke-linecap="round" stroke-linejoin="round"/>
<path d="M312.275 144.689L312.672 146.568C313.355 146.646 314.046 146.553 314.684 146.299" stroke="#263238" stroke-linecap="round" stroke-linejoin="round"/>
<path d="M317.766 143.887L318.035 145.901C318.035 145.901 319.912 146.433 320.584 146.029" stroke="#263238" stroke-linecap="round" stroke-linejoin="round"/>
<path d="M311.737 143.349C312.406 143.033 313.157 142.939 313.883 143.079" stroke="#263238" stroke-linecap="round" stroke-linejoin="round"/>
<path d="M316.72 142.547C316.72 142.547 317.258 142.009 318.732 142.278" stroke="#263238" stroke-linecap="round" stroke-linejoin="round"/>
<path d="M319.685 156.544C319.685 156.544 313.785 159.359 312.446 159.604C311.107 159.848 308.692 160.944 308.826 161.88C308.961 162.817 308.295 177.309 308.692 178.251C309.089 179.194 308.692 186.703 308.429 187.639C308.166 188.576 303.88 200.809 303.88 200.809C303.88 200.809 304.822 201.887 306.833 201.079C308.845 200.271 311.657 191.691 312.189 188.337C312.721 184.983 316.347 170.222 317.283 166.868C318.218 163.514 319.685 156.544 319.685 156.544Z" fill="white" stroke="#263238" stroke-linecap="round" stroke-linejoin="round"/>
<path d="M325.451 155.736C325.451 155.736 322.767 166.066 321.428 170.222C320.089 174.377 318.75 176.801 318.982 180.014C319.215 183.227 318.848 199.463 321.263 201.746C323.678 204.029 326.766 205.497 329.823 205.497C331.952 205.444 334.067 205.129 336.121 204.561C336.121 204.561 332.366 184.035 332.366 183.502C332.366 182.97 338.267 164.047 338.132 162.437C337.998 160.828 325.451 155.736 325.451 155.736Z" fill="white" stroke="#263238" stroke-linecap="round" stroke-linejoin="round"/>
<path d="M314.458 168.477C314.476 170.935 314.657 173.388 315.002 175.821C315.95 171.929 316.836 168.318 317.27 166.856C318.212 163.502 319.716 156.531 319.716 156.531C319.716 156.531 318.242 157.235 316.598 157.969C315.84 160.258 314.458 165.02 314.458 168.477Z" fill="#52BFB8" stroke="#263238" stroke-linecap="round" stroke-linejoin="round"/>
<path d="M325.451 155.736C325.451 155.736 322.767 166.066 321.428 170.222C320.707 172.449 319.991 174.181 319.52 175.797C321.466 174.265 323.151 172.428 324.51 170.356C326.711 167.058 328.099 159.603 328.521 157.033C326.754 156.262 325.451 155.736 325.451 155.736Z" fill="#52BFB8" stroke="#263238" stroke-linecap="round" stroke-linejoin="round"/>
<path d="M301.434 184.445L300.095 188.337L298.75 183.374C299.253 183.267 299.776 183.312 300.254 183.502C300.732 183.693 301.142 184.021 301.434 184.445Z" fill="#263238" stroke="#263238" stroke-linecap="round" stroke-linejoin="round"/>
<path d="M291.927 169.261L299.563 182.676L309.481 183.214L302.914 169.261H291.927Z" fill="#263238" stroke="#263238" stroke-linecap="round" stroke-linejoin="round"/>
<path d="M298.775 183.374C298.775 183.374 295.027 177.866 294.495 176.531C294.028 175.423 293.755 174.243 293.687 173.043C293.687 172.235 293.957 171.966 294.36 172.908C294.764 173.851 295.583 175.858 295.583 175.858L296.255 171.831C296.255 171.831 296.659 171.164 297.056 171.966C297.454 172.768 297.056 175.858 297.056 175.858L298.133 171.164C298.133 171.164 298.665 170.222 299.068 170.895C299.472 171.568 298.799 175.32 298.799 175.32L300.022 172.504C300.212 172.508 300.396 172.577 300.541 172.699C300.687 172.822 300.786 172.991 300.823 173.178C300.957 173.845 299.887 177.462 299.887 177.462L301.63 175.717C301.63 175.717 302.296 175.448 302.027 176.256C301.537 177.246 300.955 178.189 300.291 179.071C300.619 179.856 300.886 180.664 301.092 181.489C300.979 182.002 300.798 182.498 300.554 182.964L301.495 184.438L300.957 185.509L298.775 183.374Z" fill="white" stroke="#263238" stroke-linecap="round" stroke-linejoin="round"/>
<path d="M308.429 187.664C308.641 186.222 308.763 184.769 308.796 183.312L301.324 183.924L300.101 188.355L308.05 188.692C308.27 188.159 308.386 187.798 308.429 187.664Z" fill="white" stroke="#263238" stroke-linecap="round" stroke-linejoin="round"/>
<path d="M319.82 179.481C319.82 179.481 315.485 176.066 314.611 175.313C313.43 174.304 311.376 174.653 311.376 174.653C311.376 174.653 308.16 176.801 307.622 177.333C307.084 177.866 307.084 178.41 307.622 178.276C308.596 177.806 309.536 177.268 310.435 176.666L310.569 178.673L313.388 179.481L314.189 178.673C314.586 178.985 315.041 179.214 315.528 179.347C315.98 179.417 316.443 179.371 316.873 179.212L319.416 181.495L319.82 179.481Z" fill="white" stroke="#263238" stroke-linecap="round" stroke-linejoin="round"/>
<path d="M333.626 160.026C333.626 160.026 338.854 161.103 339.52 162.847C340.187 164.591 339.655 191.825 339.117 192.627C338.579 193.429 317.943 182.988 317.943 182.988L319.685 178.961L331.614 182.18L330.783 169.016" fill="white"/>
<path d="M333.626 160.026C333.626 160.026 338.854 161.103 339.52 162.847C340.187 164.591 339.655 191.825 339.117 192.627C338.579 193.429 317.943 182.988 317.943 182.988L319.685 178.961L331.614 182.18L330.783 169.016" stroke="#263238" stroke-linecap="round" stroke-linejoin="round"/>
<path d="M311.407 178.802C311.407 178.802 311.578 175.595 311.688 175.203" stroke="#263238" stroke-linecap="round" stroke-linejoin="round"/>
<path d="M312.477 178.973C312.477 178.973 312.758 175.993 312.868 175.485" stroke="#263238" stroke-linecap="round" stroke-linejoin="round"/>
<path d="M314.189 178.673L314.164 177.902L313.486 177.792" stroke="#263238" stroke-linecap="round" stroke-linejoin="round"/>
<path d="M199.497 265.112C199.497 265.112 198.696 267.707 199.32 268.956C199.943 270.204 201.288 270.48 203.159 270.302C205.03 270.125 212.276 268.509 213.26 268.331C213.988 268.184 214.704 267.979 215.4 267.719C213.032 266.938 210.616 266.311 208.167 265.841C204.951 265.302 200.127 264.409 200.127 264.409L199.497 265.112Z" fill="white" stroke="#263238" stroke-linecap="round" stroke-linejoin="round"/>
<path d="M200.127 264.384L199.515 265.1C199.515 265.1 198.714 267.695 199.338 268.943C199.809 269.886 200.677 270.271 201.881 270.327C201.272 269.757 200.826 269.034 200.591 268.234C200.419 267.614 200.391 266.963 200.511 266.332C200.631 265.7 200.895 265.105 201.282 264.592L200.127 264.384Z" fill="white" stroke="#263238" stroke-linecap="round" stroke-linejoin="round"/>
<path d="M206.051 244.451L202.835 254.47L192.38 253.668C192.38 253.668 198.727 259.659 203.386 262.432C208.045 265.204 216.427 267.793 221.698 266.544C226.968 265.296 239.68 253.484 239.68 253.484L228.515 253.668L226.229 244.188L206.051 244.451Z" fill="#263238" stroke="#263238" stroke-linecap="round" stroke-linejoin="round"/>
<path d="M215.4 195.577C215.4 195.577 208.833 196.801 208.032 198.796C207.231 200.791 207.898 205.528 208.436 208.588C208.974 211.648 210.307 212.076 208.032 214.359C205.758 216.642 207.898 219.053 210.044 220.259C212.19 221.464 215.137 219.861 215.804 218.515" fill="#263238"/>
<path d="M215.4 195.577C215.4 195.577 208.833 196.801 208.032 198.796C207.231 200.791 207.898 205.528 208.436 208.588C208.974 211.648 210.307 212.076 208.032 214.359C205.758 216.642 207.898 219.053 210.044 220.259C212.19 221.464 215.137 219.861 215.804 218.515" stroke="#263238" stroke-linecap="round" stroke-linejoin="round"/>
<path d="M198.25 233.539C198.25 233.539 194.764 243.203 195.119 244.004C195.474 244.806 204.321 254.292 204.59 254.292C204.859 254.292 206.29 255.186 206.736 255.186C207.007 255.213 207.28 255.181 207.537 255.094C208.041 255.007 208.549 254.948 209.06 254.916L210.044 255.81L213.26 255.455C213.26 255.455 211.206 252.683 210.307 252.322C209.408 251.96 205.574 251.52 205.574 251.52L200.683 242.395L203.184 236.673L198.25 233.539Z" fill="white" stroke="#263238" stroke-linecap="round" stroke-linejoin="round"/>
<path d="M210.044 220.755C210.044 220.755 202.982 221.287 202.267 221.471C201.992 221.512 201.729 221.614 201.498 221.769C201.267 221.923 201.072 222.126 200.928 222.364C200.659 222.811 196.036 233.007 196.036 233.007L203.606 237.566L204.59 235.063L206.051 244.451H226.333L226.871 235.332L228.839 238.105L237.057 232.199C237.057 232.199 229.108 221.024 226.871 220.755C224.633 220.485 210.044 220.755 210.044 220.755Z" fill="white" stroke="#263238" stroke-linecap="round" stroke-linejoin="round"/>
<path d="M212.899 216.189C212.899 216.189 212.453 218.429 212.184 219.249C211.915 220.069 210.044 220.773 210.044 220.773C210.044 220.773 211.652 225.155 215.938 226.14C219.081 226.856 221.392 223.9 221.839 223.276C222.285 222.652 222.731 220.412 222.731 220.412C222.731 220.412 220.762 218.717 220.677 218.356C220.591 217.994 220.402 216.52 220.402 216.52C220.402 216.52 215.584 217.444 212.899 216.189Z" fill="white" stroke="#263238" stroke-linecap="round" stroke-linejoin="round"/>
<path d="M214.868 200.406L209.641 207.517C209.641 207.517 207.494 204.567 207.494 207.382C207.494 210.198 208.717 210.871 209.102 211.005C209.488 211.14 210.044 211.275 210.044 211.275C210.604 213.226 211.613 215.018 212.991 216.507C215.137 218.649 217.271 219.053 219.154 217.982C221.038 216.911 222.37 213.551 222.37 213.551C222.37 213.551 223.716 209.127 223.447 206.978C223.178 204.83 217.008 199.604 214.868 200.406Z" fill="white" stroke="#263238" stroke-linecap="round" stroke-linejoin="round"/>
<path d="M214.361 209.677C214.428 210.106 214.245 210.491 213.951 210.534C213.658 210.577 213.34 210.271 213.297 209.836C213.254 209.402 213.419 209.022 213.713 208.98C214.006 208.937 214.3 209.243 214.361 209.677Z" fill="#263238"/>
<path d="M218.396 209.677C218.335 210.106 218.518 210.491 218.812 210.534C219.105 210.577 219.423 210.271 219.466 209.836C219.509 209.402 219.344 209.022 219.05 208.98C218.757 208.937 218.463 209.243 218.396 209.677Z" fill="#263238"/>
<path d="M215.645 213.655C215.672 213.753 215.719 213.844 215.782 213.923C215.845 214.003 215.923 214.068 216.012 214.117C216.101 214.165 216.199 214.195 216.299 214.206C216.4 214.216 216.502 214.205 216.599 214.176C216.804 214.147 216.997 214.057 217.15 213.917C217.304 213.777 217.412 213.594 217.461 213.392" stroke="#263238" stroke-linecap="round" stroke-linejoin="round"/>
<path d="M214.954 214.953C214.954 214.953 216.855 215.816 218.066 214.781" stroke="#263238" stroke-linecap="round" stroke-linejoin="round"/>
<path d="M212.276 208.374C212.276 208.374 212.618 207.248 214.783 207.682" stroke="#263238" stroke-linecap="round" stroke-linejoin="round"/>
<path d="M217.461 207.768C217.718 207.646 217.999 207.583 218.283 207.583C218.567 207.583 218.848 207.646 219.105 207.768" stroke="#263238" stroke-linecap="round" stroke-linejoin="round"/>
<path d="M214.734 199.867C214.734 199.867 221.459 211.807 221.839 213.551C222.218 215.296 219.692 217.444 221.031 219.059C222.37 220.675 224.382 222.682 224.382 222.682C224.382 222.682 221.325 223.906 222.37 224.83C223.416 225.755 228.937 224.292 230.545 222.682C232.153 221.073 229.879 218.655 229.322 217.174C228.766 215.693 230.661 212.346 230.129 207.921C229.598 203.496 223.826 196.379 220.475 195.173C217.124 193.967 214.446 195.442 213.376 196.783" fill="#263238"/>
<path d="M214.734 199.867C214.734 199.867 221.459 211.807 221.839 213.551C222.218 215.296 219.692 217.444 221.031 219.059C222.37 220.675 224.382 222.682 224.382 222.682C224.382 222.682 221.325 223.906 222.37 224.83C223.416 225.755 228.937 224.292 230.545 222.682C232.153 221.073 229.879 218.655 229.322 217.174C228.766 215.693 230.661 212.346 230.129 207.921C229.598 203.496 223.826 196.379 220.475 195.173C217.124 193.967 214.446 195.442 213.376 196.783" stroke="#263238" stroke-linecap="round" stroke-linejoin="round"/>
<path d="M213.829 217.548C213.829 217.548 212.881 218.937 213.572 219.384C214.263 219.83 215.039 220.338 215.039 220.338C215.039 220.338 214.783 222.786 215.302 223.539C215.822 224.292 218.066 225.375 218.066 225.375C218.066 225.375 222.132 230.657 224.987 233.6C227.843 236.544 233.462 242.346 234.85 242.346C236.238 242.346 238.133 239.402 237.962 237.064C237.791 234.727 230.955 231.697 229.659 230.657C228.362 229.616 220.402 224.537 220.402 224.537C220.402 224.537 220.059 220.467 220.145 219.604C220.23 218.741 220.059 217.156 220.402 216.544C220.744 215.932 219.711 216.287 219.179 217.156C218.894 217.569 218.716 218.046 218.659 218.545L213.829 217.548Z" fill="white" stroke="#263238" stroke-linecap="round" stroke-linejoin="round"/>
<path d="M229.787 242.487H202.358V259.035H229.787V242.487Z" fill="#B0B0B0" stroke="#263238" stroke-linecap="round" stroke-linejoin="round"/>
<path d="M216.299 263.95C216.299 263.95 229.518 258.497 233.095 255.724C236.672 252.952 240.334 251.605 242.474 252.236C244.614 252.866 245.874 256.973 244.889 259.659C243.905 262.346 236.219 263.595 232.918 264.757C229.616 265.92 219.503 267.615 219.503 267.615L214.856 265.021L216.299 263.95Z" fill="#263238" stroke="#263238" stroke-linecap="round" stroke-linejoin="round"/>
<path d="M217.192 264.127C217.192 264.127 220.677 264.935 223.801 265.828C226.926 266.722 227.47 266.814 227.47 266.814C227.47 266.814 234.978 265.29 236.14 265.02C237.302 264.751 239.711 265.737 239.98 267.438C240.249 269.139 239.625 270.21 238.757 270.657C237.888 271.104 236.342 271.104 235.272 271.104C234.202 271.104 228.21 270.565 227.323 270.492C226.436 270.418 216.421 268.521 216.421 268.521L217.192 264.127Z" fill="white" stroke="#263238" stroke-linecap="round" stroke-linejoin="round"/>
<path d="M227.225 270.504H227.286C228.179 270.59 234.165 271.116 235.235 271.116C236.305 271.116 237.821 271.116 238.72 270.669C239.619 270.222 240.236 269.152 239.943 267.45C239.649 265.749 237.265 264.77 236.103 265.033C234.941 265.296 227.451 266.832 227.451 266.832C227.451 266.832 228.203 269.109 227.225 270.504Z" fill="white" stroke="#263238" stroke-linecap="round" stroke-linejoin="round"/>
<path d="M216.299 263.95C212.188 262.577 208.257 260.716 204.59 258.405C198.696 254.647 190.919 251.673 189.849 251.605C188.779 251.538 186.009 254.115 186.718 257.15C187.427 260.186 193.444 263.595 194.581 264.041C195.718 264.488 211.738 268.778 214.954 268.778L216.299 263.95Z" fill="#263238" stroke="#263238" stroke-linecap="round" stroke-linejoin="round"/>
<path d="M214.153 262.964C214.153 262.964 212.722 267.793 212.63 268.154C212.539 268.515 212.367 268.956 213.077 269.225C213.979 269.491 214.912 269.641 215.853 269.672C216.385 269.672 216.745 268.448 216.923 267.976C217.31 266.721 217.579 265.433 217.724 264.127C217.724 263.325 216.207 263.056 215.669 262.903C215.166 262.809 214.647 262.83 214.153 262.964Z" fill="#D9D9D9" stroke="#263238" stroke-linecap="round" stroke-linejoin="round"/>
<path d="M59.92 162.914C59.92 162.914 61.791 165.852 62.3229 166.745C62.8548 167.639 62.7692 169.61 62.7692 169.61L64.9154 171.752L62.3657 173.722C62.3657 173.722 59.6815 171.935 59.1496 171.666C58.6118 171.423 58.0373 171.272 57.4498 171.219C57.1808 171.219 54.68 168.086 54.68 168.086L53.1943 167.076L54.0747 164.628L58.0062 165.791L59.92 162.914Z" fill="#CFCFCF" stroke="#263238" stroke-linecap="round" stroke-linejoin="round"/>
<path d="M50.7669 163.3L59.6143 171.752L62.8304 168.936L54.9246 161.421L50.7669 163.3Z" fill="#263238" stroke="#263238" stroke-linecap="round" stroke-linejoin="round"/>
<path d="M58.6299 162.566C58.4825 162.574 58.3422 162.632 58.2313 162.729C58.1205 162.827 58.0456 162.959 58.0185 163.104C57.835 164.083 57.5293 166.097 58.1224 166.268C58.2541 166.322 58.397 166.344 58.5388 166.331C58.6807 166.318 58.8174 166.272 58.9374 166.195C59.0573 166.118 59.1571 166.013 59.228 165.89C59.299 165.766 59.3393 165.627 59.3453 165.485C59.4553 164.922 60.1279 163.361 59.9017 162.914C59.7121 162.559 59.2597 162.553 58.6299 162.566Z" fill="#CFCFCF" stroke="#263238" stroke-linecap="round" stroke-linejoin="round"/>
<path d="M52.644 164.512C52.644 164.512 51.4211 166.788 52.375 167.462C53.3288 168.135 53.3166 166.788 53.5978 165.987C53.8791 165.185 53.8485 164.108 52.644 164.512Z" fill="#CFCFCF" stroke="#263238" stroke-linecap="round" stroke-linejoin="round"/>
<path d="M54.9246 166.788C54.9246 166.788 53.8485 168.936 54.2521 169.61C54.6556 170.283 55.1937 169.61 55.4749 168.936C55.7073 168.525 55.8452 168.067 55.8785 167.596C55.8846 166.421 54.9246 166.788 54.9246 166.788Z" fill="#CFCFCF" stroke="#263238" stroke-linecap="round" stroke-linejoin="round"/>
<path d="M56.0374 167.749C56.0374 167.749 54.9674 169.891 55.3648 170.564C55.7623 171.238 56.3064 170.564 56.5877 169.891C56.8217 169.481 56.9578 169.022 56.9851 168.551C57.0035 167.376 56.0374 167.749 56.0374 167.749Z" fill="#CFCFCF" stroke="#263238" stroke-linecap="round" stroke-linejoin="round"/>
<path d="M57.3092 168.808C57.3092 168.808 56.2392 170.956 56.6427 171.629C57.0463 172.302 57.5782 171.629 57.8656 170.956C58.098 170.545 58.2359 170.087 58.2691 169.616C58.2752 168.441 57.3092 168.808 57.3092 168.808Z" fill="#CFCFCF" stroke="#263238" stroke-linecap="round" stroke-linejoin="round"/>
<path d="M64.7075 170.503L60.8677 174.438L71.048 182.755L72.0324 175.87L64.7075 170.503Z" fill="#52BFB8" stroke="#263238" stroke-linecap="round" stroke-linejoin="round"/>
<path d="M69.6662 187.523C69.6662 187.523 67.734 194.64 67.8319 195.73C67.9051 196.37 67.9459 197.013 67.9542 197.658C67.9542 197.658 62.5247 204.298 59.7549 210.21C56.9851 216.122 56.7406 219.506 57.5843 220.106C58.4281 220.706 69.8802 225.779 71.0847 226.024L72.3075 226.263L82.0904 229.641L83.0564 230.73L84.9824 230.118C85.8262 229.635 86.3092 226.379 86.5538 225.051C86.7984 223.723 87.3976 223.117 86.7923 223.001C86.2317 222.935 85.6653 222.935 85.1047 223.001C85.1047 223.001 85.4655 222.272 84.8663 222.272H83.1543C83.1543 222.272 75.2057 219.016 73.8728 218.294C72.5399 217.572 69.1709 215.761 69.1709 215.761L77.04 210.093C77.04 210.093 86.566 204.543 87.8928 202.248C89.2196 199.953 89.9411 195.607 89.9411 193.796C89.9411 191.984 76.7954 185.84 74.5087 185.84C72.2219 185.84 69.7823 186.317 69.6662 187.523Z" fill="#263238" stroke="#263238" stroke-linecap="round" stroke-linejoin="round"/>
<path d="M86.7862 223.007C86.7862 223.007 93.5119 223.245 94.5024 223.729C95.4929 224.212 95.4684 225.901 95.4684 227.107C95.4684 228.313 94.5024 231.091 94.747 232.419C94.9915 233.747 95.0343 235.326 95.2239 237.248C95.5907 240.865 94.533 241.244 93.9032 241.11C91.6103 240.626 91.3658 237.848 90.2835 235.198C89.2013 232.548 88.596 231.091 88.596 231.091L84.9886 230.112C84.9886 230.112 85.7039 224.818 86.7862 223.007Z" fill="white" stroke="#263238" stroke-linecap="round" stroke-linejoin="round"/>
<path d="M94.5024 223.729C93.9476 223.548 93.3725 223.437 92.7904 223.398C93.2739 225.241 93.5246 227.136 93.5363 229.041C93.5363 232.78 94.2639 237.125 93.9032 239.904C93.8421 240.351 93.7809 240.724 93.7198 241.055C93.7798 241.077 93.841 241.095 93.9032 241.11C94.5146 241.244 95.5907 240.865 95.2239 237.248C95.0343 235.326 94.9854 233.747 94.747 232.419C94.5085 231.091 95.4685 228.313 95.4685 227.107C95.4685 225.901 95.4684 224.212 94.5024 223.729Z" fill="white" stroke="#263238" stroke-linecap="round" stroke-linejoin="round"/>
<path d="M71.1397 197.676C71.1397 197.676 72.6132 206.801 72.0752 212.162C71.5371 217.523 71.9468 229.469 72.4787 232.823C73.0107 236.177 72.6133 246.238 72.6133 247.982C72.6305 248.835 72.5856 249.688 72.4787 250.534C72.4787 250.534 71.0052 250.4 71.1397 251.202C71.2233 251.734 71.2683 252.272 71.2742 252.811C72.21 253.558 73.3142 254.064 74.4903 254.286C76.5019 254.69 78.648 255.094 79.0455 254.555C79.4429 254.017 79.3145 252.279 79.3145 252.279C79.5341 252.073 79.7076 251.824 79.8236 251.546C79.9395 251.269 79.9952 250.97 79.9871 250.669V249.023C79.9871 249.023 81.8642 241.244 81.7296 236.55C81.5951 231.856 80.6535 229.17 80.9226 227.982C81.1916 226.795 87.2203 208.398 87.2203 208.398C87.2203 208.398 89.0974 204.371 89.5009 201.825C89.7855 199.61 89.2694 197.365 88.0457 195.497C87.2386 194.426 74.9122 191.073 74.9122 191.073" fill="#263238"/>
<path d="M71.1397 197.676C71.1397 197.676 72.6132 206.801 72.0752 212.162C71.5371 217.523 71.9468 229.469 72.4787 232.823C73.0107 236.177 72.6133 246.238 72.6133 247.982C72.6305 248.835 72.5856 249.688 72.4787 250.534C72.4787 250.534 71.0052 250.4 71.1397 251.202C71.2233 251.734 71.2683 252.272 71.2742 252.811C72.21 253.558 73.3142 254.064 74.4903 254.286C76.5019 254.69 78.648 255.094 79.0455 254.555C79.4429 254.017 79.3145 252.279 79.3145 252.279C79.5341 252.073 79.7076 251.824 79.8236 251.546C79.9395 251.269 79.9952 250.97 79.9871 250.669V249.023C79.9871 249.023 81.8642 241.244 81.7296 236.55C81.5951 231.856 80.6535 229.17 80.9226 227.982C81.1916 226.795 87.2203 208.398 87.2203 208.398C87.2203 208.398 89.0974 204.371 89.5009 201.825C89.7855 199.61 89.2694 197.365 88.0457 195.497C87.2386 194.426 74.9122 191.073 74.9122 191.073" stroke="#263238" stroke-linecap="round" stroke-linejoin="round"/>
<path d="M74.5393 155.889C74.5393 155.889 71.2559 162.755 71.2559 167.039C71.2559 171.323 69.9658 178.588 69.9658 180.577C69.9658 182.566 68.1743 185.558 68.9691 187.272C69.764 188.986 74.3375 188.961 74.7349 188.961C75.1323 188.961 77.7248 189.059 78.22 188.863C78.7153 188.667 79.6141 172.235 79.6141 168.453C79.6141 164.671 79.8098 154.989 79.7119 153.814C79.6141 152.639 75.7315 153.698 74.5393 155.889Z" fill="white" stroke="#263238" stroke-linecap="round" stroke-linejoin="round"/>
<path d="M79.9871 149.083C77.3106 153.634 75.6639 158.716 75.1629 163.973C74.2213 172.963 71.6778 188.924 73.5548 190.669C75.4319 192.413 80.1216 193.618 82.2616 194.696C84.4016 195.773 87.8928 197.511 89.0974 198.184C90.3019 198.857 92.3135 198.049 92.3135 198.049C92.3135 198.049 93.9215 183.826 93.3896 177.523C92.8576 171.219 92.0506 160.619 89.5009 155.521C86.9512 150.423 80.6535 148.41 79.9871 149.083Z" fill="#52BFB8" stroke="#263238" stroke-linecap="round" stroke-linejoin="round"/>
<path d="M80.2561 194.696L78.6481 196.44L81.3261 200.057L82.9342 196.972L80.2561 194.696Z" fill="#CFCFCF" stroke="#263238" stroke-linecap="round" stroke-linejoin="round"/>
<path d="M80.2561 158.202C80.2561 158.202 77.9755 164.108 79.18 168.936C80.3845 173.765 83.6067 183.826 83.6067 183.826L79.5835 194.696L83.6067 198.319C83.6067 198.319 92.0506 184.365 92.0506 182.486C92.0506 180.607 90.1735 161.421 89.3664 158.875C88.5593 156.329 87.2203 153.912 85.2148 153.912" fill="#52BFB8"/>
<path d="M80.2561 158.202C80.2561 158.202 77.9755 164.108 79.18 168.936C80.3845 173.765 83.6067 183.826 83.6067 183.826L79.5835 194.696L83.6067 198.319C83.6067 198.319 92.0506 184.365 92.0506 182.486C92.0506 180.607 90.1735 161.421 89.3664 158.875C88.5593 156.329 87.2203 153.912 85.2148 153.912" stroke="#263238" stroke-linecap="round" stroke-linejoin="round"/>
<path d="M71.8123 253.184C71.8123 253.184 70.8707 253.588 70.8707 254.255C70.8707 254.922 70.0697 258.539 70.0697 258.539C70.0697 258.539 63.503 260.816 62.2923 261.085C61.0817 261.355 60.6843 263.503 61.0695 264.145C61.4547 264.788 65.8936 265.369 69.7823 265.492C73.671 265.614 78.2262 265.626 78.6297 264.953C79.0333 264.28 78.8926 257.707 78.8926 257.707L79.0271 254.488C76.5867 254.28 74.1712 253.844 71.8123 253.184Z" fill="white" stroke="#263238" stroke-linecap="round" stroke-linejoin="round"/>
<path d="M60.9655 263.809C60.9829 263.94 61.0244 264.066 61.0878 264.182C61.4914 264.855 65.912 265.406 69.8007 265.528C73.6894 265.651 78.2445 265.663 78.6481 264.99C78.7383 264.749 78.7898 264.495 78.8009 264.237C73.0474 265.222 64.7503 264.323 60.9655 263.809Z" fill="white" stroke="#263238" stroke-linecap="round" stroke-linejoin="round"/>
<path d="M60.8188 132.584C60.8188 132.584 58.0062 135.13 58.2752 138.753C58.5443 142.376 59.0762 143.716 59.4981 144.12C60.0019 144.523 60.54 144.881 61.1062 145.191C61.1062 145.191 60.8371 149.083 61.6442 149.352C62.3911 149.513 63.1581 149.558 63.9187 149.487C63.9187 149.487 66.0648 153.373 67.2694 153.508C68.4739 153.643 70.889 151.231 70.889 151.231L74.9122 154.848L79.4674 147.871L76.9238 145.056C76.9238 145.056 78.1467 137.547 76.3858 133.52C74.6249 129.493 64.2 127.486 60.8188 132.584Z" fill="#CFCFCF" stroke="#263238" stroke-linecap="round" stroke-linejoin="round"/>
<path d="M70.8707 151.225L72.7417 149.334L72.4482 152.113L70.8707 151.225Z" fill="#263238" stroke="#263238" stroke-linecap="round" stroke-linejoin="round"/>
<path d="M72.76 144.518C72.76 144.518 75.1507 144.701 76.9789 144.622C77.199 142.963 77.8715 136.966 76.3674 133.52C74.6249 129.493 64.1389 127.486 60.8188 132.584C59.8333 133.555 59.0843 134.74 58.6299 136.048C58.8194 136.36 59.0885 136.537 59.4798 136.201C60.4153 135.399 63.2339 135.13 63.503 136.604C63.772 138.079 63.503 139.426 65.111 139.022C65.947 138.756 66.8513 138.804 67.6546 139.157C67.6546 139.157 68.7246 141.035 69.3971 140.631C70.0697 140.228 69.5317 139.407 70.3387 138.483C71.1458 137.559 74.2213 139.022 74.3558 141.035C74.4903 143.049 72.76 144.518 72.76 144.518Z" fill="#263238" stroke="#263238" stroke-linecap="round" stroke-linejoin="round"/>
<path d="M63.5886 144.04C63.8821 144.395 63.9554 144.818 63.7475 144.989C63.5397 145.16 63.1361 144.989 62.8487 144.652C62.5614 144.316 62.4819 143.875 62.6898 143.704C62.8977 143.532 63.2645 143.685 63.5886 144.04Z" fill="#263238"/>
<path d="M61.5647 143.563C61.5647 143.563 61.2407 142.339 62.7876 142.339" stroke="#263238" stroke-linecap="round" stroke-linejoin="round"/>
<path d="M79.1127 146.629L73.347 155.387L75.9333 158.771L81.6991 148.52L79.1127 146.629Z" fill="white" stroke="#263238" stroke-linecap="round" stroke-linejoin="round"/>
</svg>
