<svg width="297" height="297" viewBox="0 0 297 297" fill="none" xmlns="http://www.w3.org/2000/svg">
<path d="M268.078 70.1633C267.098 68.5357 266.082 66.9379 265.025 65.3756C250.882 44.5975 227.342 30.3712 204.467 23.9323C194.446 21.1048 184.152 19.6258 173.882 19.2515C106.504 16.8043 81.7522 72.3551 60.0415 86.6824C38.3308 101.004 5.0193 125.471 9.20106 176.869C12.373 215.949 34.6005 253.311 75.2004 270.312C79.6732 272.189 84.3718 273.822 89.2901 275.176C98.4436 277.695 108.357 279.275 119.049 279.75C149.747 281.116 174.672 273.721 199.049 255.087C204.716 250.757 210.353 245.868 217.707 245.334C223.053 244.948 228.12 246.866 222.53 252.034C215.961 258.105 223.54 270.05 240.214 261.752C268.054 247.894 279.513 217.998 284.906 187.597C291.529 150.282 288.322 103.873 268.078 70.1752V70.1633Z" fill="#52BFB8"/>
<path opacity="0.7" d="M268.078 70.1633C267.098 68.5357 266.082 66.9379 265.025 65.3756C250.882 44.5975 227.342 30.3712 204.467 23.9323C194.446 21.1048 184.152 19.6258 173.882 19.2515C106.504 16.8043 81.7522 72.3551 60.0415 86.6824C38.3308 101.004 5.0193 125.471 9.20106 176.869C12.373 215.949 34.6005 253.311 75.2004 270.312C79.6732 272.189 84.3718 273.822 89.2901 275.176C98.4436 277.695 108.357 279.275 119.049 279.75C149.747 281.116 174.672 273.721 199.049 255.087C204.716 250.757 210.353 245.868 217.707 245.334C223.053 244.948 228.12 246.866 222.53 252.034C215.961 258.105 223.54 270.05 240.214 261.752C268.054 247.894 279.513 217.998 284.906 187.597C291.529 150.282 288.322 103.873 268.078 70.1752V70.1633Z" fill="white"/>
<g opacity="0.3">
<path d="M188.298 140.802H33.6323V223.784H188.298V140.802Z" stroke="black" stroke-linecap="round" stroke-linejoin="round"/>
<path d="M185.5 143.13H36.43V221.449H185.5V143.13Z" stroke="black" stroke-linecap="round" stroke-linejoin="round"/>
<path d="M38.4496 223.843L36.9112 230.347H39.8218L41.8711 223.843H38.4496Z" stroke="black" stroke-linecap="round" stroke-linejoin="round"/>
<path d="M184.116 223.843L185.649 230.347H182.738L180.689 223.843H184.116Z" stroke="black" stroke-linecap="round" stroke-linejoin="round"/>
</g>
<path d="M215.123 227.056L202.881 230.757L209.522 249.415L221.764 245.714C223.166 245.215 222.815 240.635 220.98 235.479C219.144 230.329 216.525 226.558 215.123 227.056Z" fill="#52BFB8" stroke="#263238" stroke-linecap="round" stroke-linejoin="round"/>
<path d="M208.743 239.186C210.579 244.336 210.929 248.922 209.528 249.421C208.126 249.92 205.5 246.148 203.671 240.998C201.835 235.848 201.485 231.262 202.887 230.763C204.288 230.264 206.914 234.036 208.743 239.186Z" fill="#263238" stroke="#263238" stroke-linecap="round" stroke-linejoin="round"/>
<path d="M165.233 173.959L167.217 184.859C167.217 184.859 174.155 195.266 177.79 203.689C181.425 212.111 191.007 223.017 192.824 224.502C194.642 225.987 199.928 229.13 201.247 231.274C202.566 233.418 205.375 240.196 205.375 240.196L191.832 245.482C191.832 245.482 189.189 242.673 187.87 238.711C186.552 234.749 185.726 231.607 185.726 231.607C185.726 231.607 172.676 221.859 168.381 218.723C164.087 215.586 162.768 213.935 162.768 213.935C162.768 213.935 157.98 191.636 157.155 186.017C156.329 180.398 161.449 174.618 165.251 173.959H165.233Z" fill="white" stroke="#263238" stroke-linecap="round" stroke-linejoin="round"/>
<path d="M204.764 236.846C204.764 236.846 207.645 243.207 207.407 244.045C207.169 244.882 205.007 245.482 204.045 245.245C203.083 245.007 201.526 238.402 201.526 238.046C201.526 237.689 203.445 235.765 204.77 236.846H204.764Z" fill="white" stroke="#263238" stroke-linecap="round" stroke-linejoin="round"/>
<path d="M200.802 238.283C200.802 238.283 203.683 244.645 203.439 245.482C203.201 246.32 201.039 246.92 200.077 246.682C199.115 246.445 197.558 239.839 197.558 239.483C197.558 239.127 199.477 237.202 200.802 238.283Z" fill="white" stroke="#263238" stroke-linecap="round" stroke-linejoin="round"/>
<path d="M197.077 239.697C197.077 239.697 199.703 245.5 199.483 246.261C199.263 247.027 197.297 247.573 196.418 247.353C195.545 247.134 194.119 241.116 194.119 240.784C194.119 240.451 195.871 238.705 197.071 239.691L197.077 239.697Z" fill="white" stroke="#263238" stroke-linecap="round" stroke-linejoin="round"/>
<path d="M193.923 240.992C193.923 240.992 196.305 246.255 196.109 246.956C195.913 247.65 194.125 248.149 193.329 247.947C192.533 247.746 191.244 242.287 191.244 241.99C191.244 241.693 192.836 240.101 193.929 240.998L193.923 240.992Z" fill="white" stroke="#263238" stroke-linecap="round" stroke-linejoin="round"/>
<path d="M192.765 227.603C192.765 227.603 194.084 227.003 195.883 227.122C197.683 227.241 202.726 228.684 203.445 229.64C204.164 230.603 205.964 237.202 205.245 237.683C204.526 238.164 197.083 240.926 196.002 241.283C194.921 241.645 194.683 239.483 195.283 238.521C195.883 237.558 197.446 236.721 197.446 236.721C197.446 236.721 194.327 236.483 193.127 234.559" fill="white"/>
<path d="M192.765 227.603C192.765 227.603 194.084 227.003 195.883 227.122C197.683 227.241 202.726 228.684 203.445 229.64C204.164 230.603 205.964 237.202 205.245 237.683C204.526 238.164 197.083 240.926 196.002 241.283C194.921 241.645 194.683 239.483 195.283 238.521C195.883 237.558 197.446 236.721 197.446 236.721C197.446 236.721 194.327 236.483 193.127 234.559" stroke="#263238" stroke-linecap="round" stroke-linejoin="round"/>
<path d="M202.364 235.046C200.326 234.683 197.446 236.727 197.446 236.727C197.446 236.727 199.245 233.484 200.564 233.008" stroke="#263238" stroke-linecap="round" stroke-linejoin="round"/>
<path d="M186.367 235.194L174.125 238.895L180.766 257.552L193.008 253.852C194.41 253.353 194.06 248.773 192.224 243.617C190.389 238.461 187.769 234.695 186.367 235.194Z" fill="#52BFB8" stroke="#263238" stroke-linecap="round" stroke-linejoin="round"/>
<path d="M179.982 247.324C181.817 252.474 182.168 257.059 180.766 257.558C179.364 258.057 176.739 254.285 174.909 249.135C173.08 243.985 172.723 239.4 174.125 238.901C175.527 238.402 178.152 242.174 179.982 247.324Z" fill="#263238" stroke="#263238" stroke-linecap="round" stroke-linejoin="round"/>
<path d="M181.794 273.436L170.353 240.029C170.353 240.029 169.035 228.797 168.369 220.54C167.71 212.284 163.249 203.029 163.249 203.029C163.249 203.029 155.652 210.3 141.117 213.103C126.581 215.913 107.918 206.659 104.116 204.514L100.315 202.37C100.315 202.37 86.6052 225.162 86.7715 242.839C86.9378 260.511 92.0581 273.561 92.0581 273.561" fill="#263238"/>
<path d="M181.794 273.436L170.353 240.029C170.353 240.029 169.035 228.797 168.369 220.54C167.71 212.284 163.249 203.029 163.249 203.029C163.249 203.029 155.652 210.3 141.117 213.103C126.581 215.913 107.918 206.659 104.116 204.514L100.315 202.37C100.315 202.37 86.6052 225.162 86.7715 242.839C86.9378 260.511 92.0581 273.561 92.0581 273.561" stroke="#263238" stroke-linecap="round" stroke-linejoin="round"/>
<path d="M136.988 254.891L139.958 273.561" stroke="#8C8C8C" stroke-linecap="round" stroke-linejoin="round"/>
<path d="M138.64 263.154L148.88 253.899" stroke="#8C8C8C" stroke-linecap="round" stroke-linejoin="round"/>
<path d="M160.968 187.062C160.968 187.062 164.241 195.432 164.241 199.887C164.241 204.342 162.257 207.651 155.652 211.613C149.046 215.574 135.497 217.226 123.772 215.414C112.046 213.596 100.98 206.166 100.315 202.364C99.6494 198.562 105.019 188.417 105.019 188.417C105.019 188.417 142.334 191.411 160.968 187.062Z" fill="white" stroke="#263238" stroke-linecap="round" stroke-linejoin="round"/>
<path d="M146.944 116.792C146.944 116.792 157.048 116.186 161.722 125.239C166.397 134.292 164.74 158.717 164.74 158.717C164.74 158.717 148.904 129.462 147.853 124.936C146.795 120.41 146.95 116.792 146.95 116.792H146.944Z" fill="white" stroke="#263238" stroke-linecap="round" stroke-linejoin="round"/>
<path d="M121.61 92.5096C121.61 92.5096 119.952 110.603 118.141 113.775C116.329 116.941 101.55 121.77 92.955 129.908C84.3599 138.052 90.5434 160.82 92.8065 168.815C95.0697 176.81 105.019 188.417 105.019 188.417C105.019 188.417 112.557 192.789 132.765 192.189C152.973 191.583 160.814 188.12 160.962 187.062C161.111 186.005 160.814 183.445 160.814 183.445C160.814 183.445 166.546 178.164 167.9 170.929C169.254 163.689 165.886 153.026 161.117 146.653C157.897 142.352 152.07 129.462 149.955 125.387C147.847 121.319 146.938 116.792 146.938 116.792C146.938 116.792 141.96 116.341 141.206 114.529C140.451 112.717 141.509 107.746 141.509 107.746C141.509 107.746 137.44 109.557 121.604 92.5155L121.61 92.5096Z" fill="white" stroke="#263238" stroke-linecap="round" stroke-linejoin="round"/>
<path d="M129.023 104.978C129.023 104.978 130.056 108.256 133.507 111.363C136.959 114.47 141.212 114.529 141.212 114.529L141.515 107.746L129.023 104.978Z" fill="#263238" stroke="#263238" stroke-linecap="round" stroke-linejoin="round"/>
<path d="M149.961 125.387C147.853 121.319 146.944 116.792 146.944 116.792C146.944 116.792 145.067 116.62 143.445 116.068C143.772 117.85 144.918 122.768 148.755 131.72C153.733 143.332 156.079 145.096 156.4 150.139C156.976 159.127 149.088 163.261 138.23 160.849C127.371 158.438 123.118 149.813 121.307 144.384C119.495 138.954 117.986 135.64 115.426 129.005C113.87 124.972 111.874 120.903 111.025 118.45C109.124 119.442 106.985 120.54 104.793 121.752C106.427 123.665 111.601 130.383 115.729 143.035C120.707 158.265 106.682 176.816 101.253 179.376C100.392 179.78 99.6613 180.172 99.0139 180.54C102.067 184.972 105.025 188.423 105.025 188.423C105.025 188.423 112.563 192.795 132.771 192.195C152.979 191.589 160.82 188.126 160.968 187.068C161.117 186.011 160.82 183.451 160.82 183.451C160.82 183.451 166.552 178.17 167.906 170.935C169.26 163.695 165.643 152.088 161.122 146.659C157.683 142.536 152.076 129.468 149.961 125.393V125.387Z" fill="#52BFB8" stroke="#263238" stroke-linecap="round" stroke-linejoin="round"/>
<path d="M140.921 116.97L141.479 121.069C141.479 121.069 144.461 121.443 147.627 119.952" stroke="#263238" stroke-linecap="round" stroke-linejoin="round"/>
<path d="M117.262 126.1C117.262 126.1 127.318 123.867 128.809 123.677C130.3 123.487 132.349 123.861 132.349 123.861" stroke="#263238" stroke-linecap="round" stroke-linejoin="round"/>
<path d="M129.73 185.839C134.618 186.082 145.851 186.112 157.422 182.447" stroke="#263238" stroke-linecap="round" stroke-linejoin="round"/>
<path d="M127.175 185.649C127.175 185.649 127.668 185.702 128.571 185.768" stroke="#263238" stroke-linecap="round" stroke-linejoin="round"/>
<path d="M147.502 186.932C145.851 187.181 144.104 187.377 142.299 187.484" stroke="#263238" stroke-linecap="round" stroke-linejoin="round"/>
<path d="M160.82 183.445C160.82 183.445 156.079 185.405 149.338 186.629" stroke="#263238" stroke-linecap="round" stroke-linejoin="round"/>
<path d="M143.784 49.1297C143.784 49.1297 142.631 43.2551 136.412 38.7585C130.193 34.2679 118.788 36.4538 116.828 37.719C114.868 38.9842 113.602 40.8316 113.602 40.8316L120.172 41.4077C120.172 41.4077 110.84 43.4808 108.304 47.9774C105.768 52.468 106.463 55.3489 106.463 55.3489L109.575 53.5075C109.575 53.5075 105.429 59.0377 106.926 65.4885C108.423 71.9393 119.37 78.8535 125.358 76.3171C131.351 73.7807 133.769 59.0377 136.418 56.7329C139.067 54.4282 143.213 54.1966 143.677 53.163C144.14 52.1235 143.79 49.1297 143.79 49.1297H143.784Z" fill="#263238" stroke="#263238" stroke-linecap="round" stroke-linejoin="round"/>
<path d="M155.777 77.1665C155.777 77.1665 153.056 85.3459 155.194 95.1944C157.333 105.049 153.365 109.124 151.339 110.08C149.314 111.036 148.732 110.472 148.732 110.472C148.732 110.472 152.557 109.112 153.46 105.732C154.363 102.352 154.054 97.1665 154.054 97.1665C154.054 97.1665 151.541 104.449 150.139 107.461C148.738 110.472 146.831 110.336 146.831 110.336C146.831 110.336 154.428 101.396 152.587 92.8125C150.745 84.2292 155.777 77.1665 155.777 77.1665Z" fill="#263238" stroke="#263238" stroke-linecap="round" stroke-linejoin="round"/>
<path d="M119.596 72.0522C119.596 72.0522 121.479 54.9985 133.305 50.6266C144.823 46.3617 156.578 50.395 161.301 58.806C166.023 67.217 162.685 76.7804 161.414 81.2711C160.142 85.7617 157.499 88.5298 157.499 90.2583C157.499 91.9868 157.386 95.7884 155.883 98.206C154.387 100.624 145.863 107.651 143.326 109.035C140.79 110.419 136.988 111.452 133.65 109.266C130.312 107.08 120.98 98.7822 120.172 93.3709C119.364 87.9536 119.251 80.3504 119.251 80.3504L119.596 72.0581V72.0522Z" fill="white" stroke="#263238" stroke-linecap="round" stroke-linejoin="round"/>
<path d="M161.295 58.806C156.572 50.395 144.823 46.3617 133.3 50.6266C121.473 55.0044 119.59 72.0522 119.59 72.0522L119.471 74.844L121.2 75.2776C121.2 75.2776 124.312 74.2381 125.001 72.2839C125.69 70.3296 127.425 68.2625 129.492 67.0982C132.373 65.4826 133.953 63.4392 134.446 60.4157C135.254 55.4618 140.665 54.4223 147.003 57.0775C153.341 59.7267 153.335 60.19 158.176 60.19C160.992 60.19 163.196 63.7124 163.73 69.2545C163.801 65.8627 163.213 62.2393 161.289 58.806H161.295Z" fill="#263238" stroke="#263238" stroke-linecap="round" stroke-linejoin="round"/>
<path d="M144.247 78.3902C144.247 78.3902 141.485 74.4757 135.028 75.2776" stroke="#263238" stroke-width="2" stroke-linecap="round" stroke-linejoin="round"/>
<path d="M135.028 81.1523C135.028 81.1523 136.644 83.9144 141.479 83.457" stroke="#263238" stroke-linecap="round" stroke-linejoin="round"/>
<path d="M150.24 81.2711C150.24 81.2711 154.85 80.1187 156.923 84.3836" stroke="#263238" stroke-width="2" stroke-linecap="round" stroke-linejoin="round"/>
<path d="M149.201 85.8805C149.201 85.8805 150.353 88.5298 155.194 88.5298" stroke="#263238" stroke-linecap="round" stroke-linejoin="round"/>
<path d="M149.314 81.0394C149.314 81.0394 146.552 82.3046 146.433 83.5758C146.32 84.841 146.665 91.179 146.32 92.0997C145.976 93.0204 143.095 93.8282 141.253 91.2919" stroke="#263238" stroke-linecap="round" stroke-linejoin="round"/>
<path d="M135.028 91.9868C135.028 91.9868 137.446 97.0537 143.552 97.517" stroke="#263238" stroke-linecap="round" stroke-linejoin="round"/>
<path d="M135.147 82.5363C135.147 82.5363 137.452 83.8015 139.869 84.0332" stroke="#263238" stroke-linecap="round" stroke-linejoin="round"/>
<path d="M149.433 87.0329C149.433 87.0329 151.274 88.8743 153.698 88.8743" stroke="#263238" stroke-linecap="round" stroke-linejoin="round"/>
<path d="M122.548 77.0715C122.548 77.0715 120.867 68.5179 117.66 70.3534C114.452 72.1888 115.218 79.5188 116.893 82.2631C118.574 85.0133 120.861 83.9441 120.861 83.9441" fill="white"/>
<path d="M122.548 77.0715C122.548 77.0715 120.867 68.5179 117.66 70.3534C114.452 72.1888 115.218 79.5188 116.893 82.2631C118.574 85.0133 120.861 83.9441 120.861 83.9441" stroke="#263238" stroke-linecap="round" stroke-linejoin="round"/>
<path d="M123.273 73.5075C123.273 73.5075 122.667 82.1027 116.941 90.3949C111.209 98.6872 113.323 103.968 114.832 105.625C116.341 107.282 117.095 106.979 117.095 106.979C117.095 106.979 114.078 104.265 114.529 100.796C114.981 97.3269 117.244 92.6521 117.244 92.6521C117.244 92.6521 116.792 100.344 116.941 103.659C117.089 106.979 118.901 107.579 118.901 107.579C118.901 107.579 115.284 96.4181 120.255 89.1832C125.233 81.9423 123.273 73.5016 123.273 73.5016V73.5075Z" fill="#263238" stroke="#263238" stroke-linecap="round" stroke-linejoin="round"/>
<path d="M147.259 145.572L134.588 143.825L132.836 163.552L145.506 165.298C146.991 165.429 148.583 161.122 149.064 155.676C149.551 150.229 148.738 145.702 147.259 145.572Z" fill="#52BFB8" stroke="#263238" stroke-linecap="round" stroke-linejoin="round"/>
<path d="M136.394 153.929C135.907 159.376 134.315 163.689 132.836 163.552C131.357 163.415 130.543 158.895 131.03 153.448C131.518 148.001 133.109 143.689 134.588 143.825C136.073 143.956 136.881 148.482 136.394 153.929Z" fill="#263238" stroke="#263238" stroke-linecap="round" stroke-linejoin="round"/>
<path d="M99.1683 125.857C99.1683 125.857 87.7754 130.169 83.6352 140.35C79.495 150.531 81.0453 165.892 86.3973 180.041C91.7492 194.19 98.1347 208.001 103.481 209.379C108.833 210.757 114.874 194.363 117.63 189.017C120.386 183.671 127.466 169.688 127.811 167.965C128.155 166.243 133.163 160.719 134.886 158.99C136.608 157.261 136.264 154.161 136.091 153.121C135.919 152.088 134.018 144.835 133.501 144.146C132.985 143.457 132.123 143.801 131.428 143.457C130.739 143.112 124.354 141.384 124.354 141.384C124.354 141.384 121.42 139.834 120.041 140.523C118.663 141.212 118.313 142.251 118.313 142.251C118.313 142.251 118.657 146.736 117.452 150.015C116.246 153.294 113.484 157.261 114 157.951C114.517 158.64 117.796 163.302 117.796 163.302C117.796 163.302 114.517 169.86 110.377 174.868L107.443 163.653" fill="white"/>
<path d="M99.1683 125.857C99.1683 125.857 87.7754 130.169 83.6352 140.35C79.495 150.531 81.0453 165.892 86.3973 180.041C91.7492 194.19 98.1347 208.001 103.481 209.379C108.833 210.757 114.874 194.363 117.63 189.017C120.386 183.671 127.466 169.688 127.811 167.965C128.155 166.243 133.163 160.719 134.886 158.99C136.608 157.261 136.264 154.161 136.091 153.121C135.919 152.088 134.018 144.835 133.501 144.146C132.985 143.457 132.123 143.801 131.428 143.457C130.739 143.112 124.354 141.384 124.354 141.384C124.354 141.384 121.42 139.834 120.041 140.523C118.663 141.212 118.313 142.251 118.313 142.251C118.313 142.251 118.657 146.736 117.452 150.015C116.246 153.294 113.484 157.261 114 157.951C114.517 158.64 117.796 163.302 117.796 163.302C117.796 163.302 114.517 169.86 110.377 174.868L107.443 163.653" stroke="#263238" stroke-linecap="round" stroke-linejoin="round"/>
<path d="M127.817 167.965C127.864 167.722 128.013 167.401 128.227 167.027L128.138 166.712C121.877 166.564 117.808 163.302 117.808 163.302C117.808 163.302 114.529 169.86 110.389 174.868L108.043 178.509C111.904 183.997 116.757 185.37 119.341 185.702C122.584 179.329 127.532 169.403 127.823 167.971L127.817 167.965Z" fill="#A1A1A1" stroke="#263238" stroke-linecap="round" stroke-linejoin="round"/>
<path d="M108.043 178.509C108.043 178.509 95.3726 187.686 94.7905 192.925" stroke="#263238" stroke-linecap="round" stroke-linejoin="round"/>
<path d="M131.44 143.463C131.44 143.463 133.169 150.193 133.169 153.3" stroke="#263238" stroke-linecap="round" stroke-linejoin="round"/>
<path d="M128.334 142.946C128.334 142.946 129.195 148.987 129.539 151.749" stroke="#263238" stroke-linecap="round" stroke-linejoin="round"/>
<path d="M124.366 141.39C124.366 141.39 125.399 148.809 125.399 150.71" stroke="#263238" stroke-linecap="round" stroke-linejoin="round"/>
<path d="M125.168 152.812C125.168 152.812 124.538 153.341 124.009 153.971" stroke="#263238" stroke-linecap="round" stroke-linejoin="round"/>
<path d="M129.058 153.763C129.058 153.763 128.429 154.291 127.9 154.921" stroke="#263238" stroke-linecap="round" stroke-linejoin="round"/>
<path d="M132.949 154.707C132.949 154.707 132.319 155.236 131.791 155.866" stroke="#263238" stroke-linecap="round" stroke-linejoin="round"/>
<path d="M117.149 140.689L104.479 138.943L102.726 158.669L115.396 160.416C116.881 160.546 118.473 156.24 118.954 150.793C119.442 145.346 118.628 140.82 117.149 140.689Z" fill="#52BFB8" stroke="#263238" stroke-linecap="round" stroke-linejoin="round"/>
<path d="M106.284 149.041C105.797 154.488 104.205 158.8 102.726 158.663C101.247 158.527 100.434 154.006 100.921 148.559C101.408 143.112 103 138.8 104.479 138.937C105.958 139.067 106.771 143.594 106.284 149.041Z" fill="#263238" stroke="#263238" stroke-linecap="round" stroke-linejoin="round"/>
<path d="M278.972 273.561H26.4092" stroke="#263238" stroke-linecap="round" stroke-linejoin="round"/>
<path d="M17.6121 273.561H22.6373" stroke="#263238" stroke-linecap="round" stroke-linejoin="round"/>
</svg>
