<svg width="30" height="30" viewBox="0 0 30 30" fill="none" xmlns="http://www.w3.org/2000/svg">
<path d="M14.625 26.4688C17.4437 23.9759 19.6007 21.5847 21.096 19.2952C22.5913 17.0057 23.3389 15.0004 23.3389 13.2794C23.3389 10.6843 22.5044 8.55084 20.8355 6.87912C19.1667 5.20739 17.0965 4.37153 14.625 4.37153C12.1535 4.37153 10.0833 5.20739 8.41445 6.87912C6.74556 8.55084 5.91112 10.6843 5.91112 13.2794C5.91112 15.0004 6.65875 17.0057 8.154 19.2952C9.64928 21.5847 11.8063 23.9759 14.625 26.4688ZM14.625 28.5C14.3442 28.5 14.0635 28.4521 13.7827 28.3563C13.502 28.2605 13.248 28.1122 13.0208 27.9114C11.7278 26.7343 10.5179 25.5221 9.39119 24.2747C8.26443 23.0273 7.28499 21.7804 6.45285 20.5339C5.62071 19.2874 4.9622 18.0519 4.47734 16.8273C3.99245 15.6027 3.75 14.4201 3.75 13.2794C3.75 9.99444 4.8255 7.33496 6.9765 5.30098C9.12747 3.26699 11.677 2.25 14.625 2.25C17.573 2.25 20.1225 3.26699 22.2735 5.30098C24.4245 7.33496 25.5 9.99444 25.5 13.2794C25.5 14.4201 25.2576 15.6004 24.7727 16.8205C24.2878 18.0405 23.6316 19.276 22.8041 20.5271C21.9766 21.7781 20.9994 23.025 19.8727 24.2679C18.7459 25.5107 17.536 26.7206 16.2431 27.8977C16.0192 28.0985 15.7648 28.2491 15.4798 28.3495C15.1949 28.4498 14.9099 28.5 14.625 28.5ZM14.6274 15.5817C15.3444 15.5817 15.9572 15.3295 16.4661 14.8251C16.975 14.3207 17.2294 13.7143 17.2294 13.006C17.2294 12.2977 16.9742 11.6921 16.4637 11.1894C15.9532 10.6866 15.3395 10.4352 14.6226 10.4352C13.9056 10.4352 13.2928 10.6874 12.7839 11.1918C12.275 11.6962 12.0206 12.3025 12.0206 13.0109C12.0206 13.7192 12.2758 14.3247 12.7863 14.8275C13.2968 15.3303 13.9105 15.5817 14.6274 15.5817Z" fill="#00243D" stroke="#00243D"/>
</svg>
