<svg width="126" height="46" viewBox="0 0 126 46" fill="none" xmlns="http://www.w3.org/2000/svg">
<path d="M39.4918 3.2194C40.6338 3.2194 41.7876 3.32792 42.9533 3.54495C44.119 3.76199 45.0469 4.07549 45.7368 4.48545C45.9509 4.58191 46.0817 4.69043 46.1293 4.81101C46.2007 4.90747 46.2483 5.08834 46.2721 5.3536L46.6646 9.40498C46.6646 9.47733 46.6051 9.52556 46.4862 9.54967C46.3672 9.54967 46.2959 9.5135 46.2721 9.44115C45.7487 7.58427 44.7733 6.22176 43.3459 5.3536C41.9422 4.46134 40.1937 4.0152 38.1001 4.0152C36.292 4.0152 34.71 4.42516 33.354 5.24508C31.9979 6.04089 30.9511 7.17431 30.2136 8.64535C29.4761 10.1164 29.1074 11.8165 29.1074 13.7457C29.1074 15.9885 29.5594 18.0624 30.4634 19.9675C31.3913 21.8726 32.6283 23.3798 34.1747 24.4891C35.7449 25.5984 37.434 26.1531 39.242 26.1531C40.9549 26.1531 42.4418 25.6828 43.7027 24.7423C44.9636 23.7777 45.9271 22.3067 46.5932 20.3292C46.5932 20.2569 46.6408 20.2207 46.736 20.2207C46.8073 20.2207 46.8668 20.2328 46.9144 20.2569C46.9858 20.281 47.0215 20.3172 47.0215 20.3654L46.5219 24.4529C46.4743 24.7423 46.4148 24.9353 46.3434 25.0317C46.2959 25.1041 46.165 25.1885 45.9509 25.2849C43.8098 26.2013 41.5497 26.6595 39.1707 26.6595C36.3158 26.6595 33.9249 26.0807 31.9979 24.9232C30.0947 23.7415 28.6911 22.2464 27.787 20.4377C26.883 18.6291 26.431 16.724 26.431 14.7224C26.431 12.5038 27.0376 10.5143 28.2509 8.75387C29.4642 6.99345 31.0701 5.63093 33.0685 4.66632C35.0668 3.7017 37.208 3.2194 39.4918 3.2194Z" fill="#0E5A73"/>
<path d="M63.3634 24.2721C63.4586 24.2721 63.5181 24.3324 63.5418 24.4529C63.5656 24.5494 63.53 24.6218 63.4348 24.67L59.7592 26.4425C59.664 26.4907 59.5689 26.5148 59.4737 26.5148C59.1644 26.5148 58.8909 26.3098 58.6529 25.8999C58.415 25.4899 58.2604 24.9232 58.189 24.1997L55.9765 25.3934C55.239 25.7793 54.6324 26.0566 54.1566 26.2254C53.6808 26.3942 53.2169 26.4786 52.7649 26.4786C52.0274 26.4786 51.4564 26.2857 51.052 25.8999C50.6713 25.4899 50.481 24.9835 50.481 24.3806C50.481 23.7295 50.7189 23.211 51.1947 22.8252C51.6943 22.4152 52.5745 21.9932 53.8354 21.5591L58.1533 20.0037V17.0013C58.1533 15.4097 57.9511 14.3004 57.5467 13.6734C57.1423 13.0223 56.5832 12.6967 55.8695 12.6967C55.0606 12.6967 54.4302 12.9861 53.9782 13.5649C53.5261 14.1436 53.2526 14.843 53.1574 15.6629C53.0622 16.5793 52.6221 17.0375 51.837 17.0375C51.4564 17.0375 51.159 16.941 50.9449 16.7481C50.7308 16.5552 50.6237 16.2899 50.6237 15.9523C50.6237 15.3976 50.9806 14.8068 51.6943 14.1798C52.408 13.5528 53.2644 13.0223 54.2636 12.5882C55.2866 12.1541 56.2025 11.9371 57.0114 11.9371C57.963 11.9371 58.7243 12.2747 59.2953 12.9499C59.8662 13.601 60.1517 14.5898 60.1517 15.9161V22.3187C60.1517 23.1628 60.2588 23.7777 60.4729 24.1636C60.687 24.5494 61.0439 24.7423 61.5435 24.7423C61.9955 24.7423 62.5783 24.5856 63.292 24.2721H63.3634ZM58.1533 23.6933V20.4377L54.4778 21.8485C53.9306 22.0655 53.538 22.3067 53.3001 22.572C53.086 22.8372 52.979 23.1748 52.979 23.5848C52.979 24.0912 53.1217 24.4891 53.4072 24.7785C53.6927 25.0438 54.0614 25.1764 54.5134 25.1764C54.9655 25.1764 55.4532 25.0558 55.9765 24.8147L58.1533 23.6933Z" fill="#0E5A73"/>
<path d="M73.3177 11.9371C73.8411 11.9371 74.3407 12.0818 74.8165 12.3712C75.2923 12.6606 75.5302 13.0102 75.5302 13.4202C75.5302 13.7337 75.4231 13.999 75.209 14.216C75.0187 14.433 74.7332 14.5415 74.3526 14.5415C74.1385 14.5415 73.9481 14.5054 73.7816 14.433C73.6389 14.3366 73.4604 14.2039 73.2463 14.0351C73.0322 13.8422 72.83 13.6975 72.6397 13.601C72.4493 13.5046 72.2233 13.4564 71.9616 13.4564C71.6524 13.4564 71.3193 13.589 70.9625 13.8543C70.6294 14.0954 70.0941 14.6501 69.3566 15.5182V23.2954C69.3566 24.0189 69.4399 24.5494 69.6064 24.887C69.7967 25.2246 70.1298 25.4658 70.6056 25.6105C71.0814 25.7311 71.8189 25.7914 72.8181 25.7914C72.9133 25.7914 72.9608 25.8637 72.9608 26.0084C72.9608 26.1531 72.9133 26.2254 72.8181 26.2254C72.0568 26.2254 71.4502 26.2134 70.9981 26.1893L68.3574 26.1531L66.3947 26.1893C66.0854 26.2134 65.6572 26.2254 65.1101 26.2254C65.0387 26.2254 65.003 26.1531 65.003 26.0084C65.003 25.8637 65.0387 25.7914 65.1101 25.7914C65.7524 25.7914 66.2282 25.7311 66.5375 25.6105C66.8467 25.4658 67.049 25.2246 67.1441 24.887C67.2631 24.5494 67.3225 24.0189 67.3225 23.2954V16.1332C67.3225 15.3132 67.2274 14.7224 67.0371 14.3607C66.8467 13.999 66.5256 13.8181 66.0736 13.8181C65.6929 13.8181 65.0506 13.999 64.1465 14.3607H64.0752C63.98 14.3607 63.9086 14.3125 63.8611 14.216C63.8373 14.0954 63.873 14.011 63.9681 13.9628L68.1076 11.9733C68.1552 11.9491 68.2266 11.9371 68.3217 11.9371C68.5359 11.9371 68.7619 12.2144 68.9998 12.7691C69.2377 13.3237 69.3566 14.0351 69.3566 14.9033V14.9395C70.332 13.7819 71.1052 12.9982 71.6762 12.5882C72.2471 12.1541 72.7943 11.9371 73.3177 11.9371Z" fill="#0E5A73"/>
<path d="M77.9303 26.2254C77.8589 26.2254 77.8232 26.1531 77.8232 26.0084C77.8232 25.8637 77.8589 25.7914 77.9303 25.7914C78.5726 25.7914 79.0484 25.7311 79.3577 25.6105C79.667 25.4658 79.8811 25.2246 80.0001 24.887C80.119 24.5253 80.1785 23.9948 80.1785 23.2954V4.59397C80.1785 3.72582 80.0952 3.09882 79.9287 2.71297C79.7622 2.32713 79.4648 2.13421 79.0366 2.13421C78.6797 2.13421 78.1325 2.30301 77.395 2.64063H77.3237C77.2523 2.64063 77.1928 2.58034 77.1452 2.45976C77.1214 2.33919 77.1452 2.26684 77.2166 2.24273L81.7843 0.0361725C81.8319 0.0120575 81.8914 0 81.9628 0C82.0103 0 82.0698 0.0361725 82.1412 0.108518C82.2363 0.156749 82.2839 0.217038 82.2839 0.289385V23.2954C82.2839 23.9948 82.3315 24.5132 82.4267 24.8509C82.5456 25.1885 82.7597 25.4296 83.069 25.5743C83.3783 25.719 83.8541 25.7914 84.4964 25.7914C84.5678 25.7914 84.6035 25.8637 84.6035 26.0084C84.6035 26.1531 84.5678 26.2254 84.4964 26.2254C83.973 26.2254 83.5448 26.2134 83.2117 26.1893L81.2134 26.1531L79.2864 26.1893C78.9533 26.2134 78.5013 26.2254 77.9303 26.2254Z" fill="#0E5A73"/>
<path d="M100.512 24.2721C100.608 24.2721 100.667 24.3324 100.691 24.4529C100.715 24.5494 100.679 24.6218 100.584 24.67L96.9082 26.4425C96.8131 26.4907 96.7179 26.5148 96.6228 26.5148C96.3135 26.5148 96.0399 26.3098 95.802 25.8999C95.5641 25.4899 95.4095 24.9232 95.3381 24.1997L93.1256 25.3934C92.3881 25.7793 91.7814 26.0566 91.3056 26.2254C90.8298 26.3942 90.3659 26.4786 89.9139 26.4786C89.1764 26.4786 88.6054 26.2857 88.201 25.8999C87.8204 25.4899 87.63 24.9835 87.63 24.3806C87.63 23.7295 87.8679 23.211 88.3438 22.8252C88.8433 22.4152 89.7236 21.9932 90.9845 21.5591L95.3024 20.0037V17.0013C95.3024 15.4097 95.1002 14.3004 94.6957 13.6734C94.2913 13.0223 93.7322 12.6967 93.0185 12.6967C92.2097 12.6967 91.5792 12.9861 91.1272 13.5649C90.6752 14.1436 90.4016 14.843 90.3064 15.6629C90.2113 16.5793 89.7712 17.0375 88.9861 17.0375C88.6054 17.0375 88.3081 16.941 88.094 16.7481C87.8798 16.5552 87.7728 16.2899 87.7728 15.9523C87.7728 15.3976 88.1296 14.8068 88.8434 14.1798C89.5571 13.5528 90.4135 13.0223 91.4127 12.5882C92.4357 12.1541 93.3516 11.9371 94.1605 11.9371C95.1121 11.9371 95.8734 12.2747 96.4443 12.9499C97.0153 13.601 97.3008 14.5898 97.3008 15.9161V22.3187C97.3008 23.1628 97.4078 23.7777 97.6219 24.1636C97.8361 24.5494 98.1929 24.7423 98.6925 24.7423C99.1445 24.7423 99.7274 24.5856 100.441 24.2721H100.512ZM95.3024 23.6933V20.4377L91.6268 21.8485C91.0796 22.0655 90.6871 22.3067 90.4492 22.572C90.2351 22.8372 90.128 23.1748 90.128 23.5848C90.128 24.0912 90.2708 24.4891 90.5562 24.7785C90.8417 25.0438 91.2105 25.1764 91.6625 25.1764C92.1145 25.1764 92.6022 25.0558 93.1256 24.8147L95.3024 23.6933Z" fill="#0E5A73"/>
<path d="M6.18547 38.3886C6.18547 38.4187 6.16069 38.4388 6.11112 38.4489C6.06156 38.4489 6.03182 38.4338 6.02191 38.4037C5.99217 37.8711 5.83357 37.4592 5.54611 37.1678C5.25864 36.8663 4.877 36.7156 4.4012 36.7156H3.4942C3.15717 36.7156 2.90439 36.7407 2.73588 36.791C2.56737 36.8412 2.44841 36.9316 2.37903 37.0623C2.31955 37.1929 2.28981 37.3838 2.28981 37.635V40.9358H3.79157C4.31694 40.9358 4.68866 40.8554 4.90674 40.6946C5.13473 40.5238 5.24873 40.2525 5.24873 39.8807C5.24873 39.8606 5.27846 39.8506 5.33794 39.8506C5.39742 39.8506 5.42715 39.8606 5.42715 39.8807L5.41229 41.1016C5.41229 41.393 5.41724 41.614 5.42715 41.7647L5.44202 42.4882C5.44202 42.5083 5.41229 42.5183 5.35281 42.5183C5.29333 42.5183 5.2636 42.5083 5.2636 42.4882C5.2636 42.0461 5.14464 41.7296 4.90674 41.5387C4.67875 41.3478 4.29216 41.2523 3.74697 41.2523H2.28981V44.538C2.28981 44.8595 2.32946 45.0957 2.40876 45.2464C2.49798 45.3871 2.66649 45.4875 2.91431 45.5478C3.16212 45.6081 3.55367 45.6383 4.08895 45.6383C4.11869 45.6383 4.13356 45.6684 4.13356 45.7287C4.13356 45.789 4.11869 45.8191 4.08895 45.8191C3.68253 45.8191 3.36533 45.8141 3.13734 45.8041L1.79914 45.789L0.788052 45.8041C0.609625 45.8141 0.356854 45.8191 0.0297378 45.8191C0.00991261 45.8191 0 45.789 0 45.7287C0 45.6684 0.00991261 45.6383 0.0297378 45.6383C0.406417 45.6383 0.68397 45.6132 0.862397 45.5629C1.04082 45.5127 1.15978 45.4172 1.21925 45.2765C1.28864 45.1258 1.32333 44.8997 1.32333 44.5983V37.6199C1.32333 37.3185 1.28864 37.0974 1.21925 36.9567C1.15978 36.8161 1.04082 36.7206 0.862397 36.6704C0.693883 36.6101 0.421286 36.5799 0.0446067 36.5799C0.0247815 36.5799 0.0148689 36.5498 0.0148689 36.4895C0.0148689 36.4292 0.0247815 36.3991 0.0446067 36.3991H6.02191C6.11112 36.3991 6.15573 36.4443 6.15573 36.5347L6.18547 38.3886Z" fill="#0E5A73"/>
<path d="M12.6057 44.5983C12.6057 44.8997 12.6354 45.1258 12.6949 45.2765C12.7544 45.4172 12.8684 45.5127 13.0369 45.5629C13.2153 45.6132 13.4929 45.6383 13.8696 45.6383C13.8993 45.6383 13.9142 45.6684 13.9142 45.7287C13.9142 45.789 13.8993 45.8191 13.8696 45.8191C13.5722 45.8191 13.3343 45.8141 13.1559 45.8041L12.1002 45.789L11.0742 45.8041C10.8958 45.8141 10.6529 45.8191 10.3456 45.8191C10.3159 45.8191 10.301 45.789 10.301 45.7287C10.301 45.6684 10.3159 45.6383 10.3456 45.6383C10.7223 45.6383 10.9949 45.6132 11.1634 45.5629C11.3418 45.5127 11.4608 45.4172 11.5203 45.2765C11.5897 45.1258 11.6244 44.8997 11.6244 44.5983V37.6199C11.6244 37.3185 11.5897 37.0974 11.5203 36.9567C11.4608 36.8161 11.3418 36.7206 11.1634 36.6704C10.9949 36.6101 10.7223 36.5799 10.3456 36.5799C10.3159 36.5799 10.301 36.5498 10.301 36.4895C10.301 36.4292 10.3159 36.3991 10.3456 36.3991L11.0742 36.4142C11.4905 36.4342 11.8325 36.4443 12.1002 36.4443C12.3975 36.4443 12.7544 36.4342 13.1707 36.4142L13.8696 36.3991C13.8993 36.3991 13.9142 36.4292 13.9142 36.4895C13.9142 36.5498 13.8993 36.5799 13.8696 36.5799C13.5028 36.5799 13.2302 36.6101 13.0518 36.6704C12.8833 36.7307 12.7643 36.8362 12.6949 36.9869C12.6354 37.1276 12.6057 37.3486 12.6057 37.6501V44.5983Z" fill="#0E5A73"/>
<path d="M19.4161 38.1625C19.4161 38.5544 19.5103 38.896 19.6986 39.1874C19.887 39.4788 20.115 39.725 20.3826 39.9259C20.6503 40.1169 21.0269 40.363 21.5126 40.6645C22.0281 40.976 22.4296 41.2372 22.717 41.4482C23.0045 41.6592 23.2474 41.9305 23.4456 42.2621C23.6538 42.5837 23.7579 42.9705 23.7579 43.4227C23.7579 43.905 23.6389 44.3421 23.401 44.7339C23.1631 45.1258 22.8112 45.4373 22.3453 45.6684C21.8893 45.8895 21.3392 46 20.6949 46C19.9316 46 19.2327 45.8242 18.5983 45.4725C18.5488 45.4423 18.5141 45.4072 18.4943 45.367C18.4843 45.3268 18.4744 45.2665 18.4645 45.1861L18.2712 43.1363C18.2613 43.0961 18.2811 43.071 18.3307 43.0609C18.3902 43.0509 18.4249 43.066 18.4348 43.1062C18.5934 43.8296 18.8858 44.4526 19.312 44.9751C19.7482 45.4976 20.3231 45.7588 21.0368 45.7588C21.5325 45.7588 21.9488 45.6232 22.2858 45.3519C22.6328 45.0706 22.8062 44.6284 22.8062 44.0256C22.8062 43.5734 22.7071 43.1815 22.5089 42.8499C22.3106 42.5183 22.0678 42.2471 21.7803 42.036C21.5027 41.815 21.1211 41.5588 20.6354 41.2674C20.1596 40.976 19.7829 40.7248 19.5053 40.5138C19.2377 40.3028 19.0097 40.0365 18.8214 39.7149C18.633 39.3934 18.5389 39.0166 18.5389 38.5845C18.5389 38.0821 18.6677 37.6551 18.9255 37.3034C19.1931 36.9417 19.5351 36.6754 19.9514 36.5046C20.3777 36.3237 20.8287 36.2333 21.3045 36.2333C21.8893 36.2333 22.4692 36.3539 23.0441 36.595C23.1928 36.6453 23.2672 36.7307 23.2672 36.8512L23.3713 38.5845C23.3713 38.6247 23.3465 38.6448 23.2969 38.6448C23.2474 38.6448 23.2176 38.6247 23.2077 38.5845C23.1284 38.062 22.9153 37.5797 22.5683 37.1376C22.2214 36.6855 21.7208 36.4594 21.0666 36.4594C20.5115 36.4594 20.0951 36.6252 19.8176 36.9567C19.55 37.2783 19.4161 37.6802 19.4161 38.1625Z" fill="#0E5A73"/>
<path d="M30.1992 44.5983C30.1992 44.8997 30.229 45.1258 30.2884 45.2765C30.3479 45.4172 30.4619 45.5127 30.6304 45.5629C30.8089 45.6132 31.0864 45.6383 31.4631 45.6383C31.4928 45.6383 31.5077 45.6684 31.5077 45.7287C31.5077 45.789 31.4928 45.8191 31.4631 45.8191C31.1657 45.8191 30.9278 45.8141 30.7494 45.8041L29.6937 45.789L28.6677 45.8041C28.4893 45.8141 28.2464 45.8191 27.9392 45.8191C27.9094 45.8191 27.8946 45.789 27.8946 45.7287C27.8946 45.6684 27.9094 45.6383 27.9392 45.6383C28.3158 45.6383 28.5884 45.6132 28.7569 45.5629C28.9354 45.5127 29.0543 45.4172 29.1138 45.2765C29.1832 45.1258 29.2179 44.8997 29.2179 44.5983V37.6199C29.2179 37.3185 29.1832 37.0974 29.1138 36.9567C29.0543 36.8161 28.9354 36.7206 28.7569 36.6704C28.5884 36.6101 28.3158 36.5799 27.9392 36.5799C27.9094 36.5799 27.8946 36.5498 27.8946 36.4895C27.8946 36.4292 27.9094 36.3991 27.9392 36.3991L28.6677 36.4142C29.0841 36.4342 29.426 36.4443 29.6937 36.4443C29.9911 36.4443 30.3479 36.4342 30.7642 36.4142L31.4631 36.3991C31.4928 36.3991 31.5077 36.4292 31.5077 36.4895C31.5077 36.5498 31.4928 36.5799 31.4631 36.5799C31.0963 36.5799 30.8237 36.6101 30.6453 36.6704C30.4768 36.7307 30.3578 36.8362 30.2884 36.9869C30.229 37.1276 30.1992 37.3486 30.1992 37.6501V44.5983Z" fill="#0E5A73"/>
<path d="M40.2957 46C39.3738 46 38.5511 45.784 37.8274 45.3519C37.1137 44.9098 36.5586 44.3169 36.1621 43.5734C35.7755 42.8198 35.5822 42.0009 35.5822 41.1166C35.5822 40.0817 35.84 39.1975 36.3554 38.464C36.8709 37.7204 37.5301 37.1627 38.333 36.791C39.1458 36.4192 39.9735 36.2333 40.8161 36.2333C41.7578 36.2333 42.5855 36.4594 43.2992 36.9115C44.0129 37.3536 44.5581 37.9415 44.9348 38.675C45.3214 39.4085 45.5147 40.1872 45.5147 41.0111C45.5147 41.9255 45.2768 42.7645 44.801 43.5282C44.3252 44.2918 43.6858 44.8947 42.8829 45.3368C42.0899 45.7789 41.2275 46 40.2957 46ZM40.8161 45.6835C41.4902 45.6835 42.0948 45.5177 42.6301 45.1861C43.1753 44.8545 43.6015 44.3672 43.9088 43.7241C44.226 43.081 44.3846 42.3174 44.3846 41.4332C44.3846 40.4886 44.2112 39.6496 43.8642 38.9161C43.5173 38.1826 43.0266 37.6099 42.3922 37.1979C41.7677 36.7859 41.0342 36.5799 40.1916 36.5799C39.1012 36.5799 38.2487 36.9367 37.6342 37.6501C37.0196 38.3635 36.7123 39.3432 36.7123 40.5891C36.7123 41.5336 36.8858 42.3978 37.2327 43.1815C37.5796 43.9552 38.0654 44.5682 38.6898 45.0203C39.3143 45.4624 40.0231 45.6835 40.8161 45.6835Z" fill="#0E5A73"/>
<path d="M51.4339 36.6704C50.8094 36.6704 50.3386 36.8311 50.0214 37.1527C49.7141 37.4742 49.491 38.0218 49.3523 38.7955C49.3523 38.8156 49.3225 38.8257 49.263 38.8257C49.2135 38.8257 49.1887 38.8156 49.1887 38.7955C49.2283 38.4338 49.2729 37.9616 49.3225 37.3788C49.3721 36.796 49.3969 36.3589 49.3969 36.0675C49.3969 36.0173 49.4216 35.9921 49.4712 35.9921C49.5307 35.9921 49.5604 36.0173 49.5604 36.0675C49.5604 36.2886 49.8281 36.3991 50.3633 36.3991C51.2059 36.4292 52.2021 36.4443 53.352 36.4443C53.9368 36.4443 54.5564 36.4342 55.2106 36.4142L56.2217 36.3991C56.5785 36.3991 56.8412 36.374 57.0097 36.3237C57.1882 36.2735 57.3022 36.173 57.3517 36.0223C57.3616 35.9821 57.3914 35.962 57.4409 35.962C57.4905 35.962 57.5153 35.9821 57.5153 36.0223C57.4855 36.3137 57.4558 36.7558 57.4261 37.3486C57.3963 37.9415 57.3815 38.4238 57.3815 38.7955C57.3815 38.8156 57.3517 38.8257 57.2923 38.8257C57.2328 38.8257 57.203 38.8156 57.203 38.7955C57.1733 38.0118 57.0147 37.4642 56.7272 37.1527C56.4398 36.8311 55.964 36.6704 55.2998 36.6704C54.8538 36.6704 54.5365 36.6905 54.3482 36.7307C54.1599 36.7709 54.031 36.8563 53.9616 36.9869C53.8922 37.1175 53.8575 37.3386 53.8575 37.6501V44.5983C53.8575 44.9098 53.8922 45.1359 53.9616 45.2765C54.031 45.4172 54.1648 45.5127 54.3631 45.5629C54.5613 45.6132 54.8736 45.6383 55.2998 45.6383C55.3296 45.6383 55.3444 45.6684 55.3444 45.7287C55.3444 45.789 55.3296 45.8191 55.2998 45.8191C54.9727 45.8191 54.71 45.8141 54.5118 45.8041L53.352 45.789L52.2368 45.8041C52.0386 45.8141 51.766 45.8191 51.419 45.8191C51.3992 45.8191 51.3893 45.789 51.3893 45.7287C51.3893 45.6684 51.3992 45.6383 51.419 45.6383C51.8453 45.6383 52.1575 45.6132 52.3558 45.5629C52.554 45.5127 52.6878 45.4172 52.7572 45.2765C52.8365 45.1258 52.8762 44.8997 52.8762 44.5983V37.6199C52.8762 37.3084 52.8415 37.0924 52.7721 36.9718C52.7027 36.8412 52.5739 36.7608 52.3855 36.7307C52.1972 36.6905 51.88 36.6704 51.4339 36.6704Z" fill="#0E5A73"/>
<path d="M67.7866 43.5734C67.7866 43.5533 67.8064 43.5433 67.846 43.5433C67.8758 43.5433 67.9006 43.5483 67.9204 43.5583C67.9501 43.5684 67.965 43.5834 67.965 43.6035C67.8758 44.2366 67.8312 44.8997 67.8312 45.5931C67.8312 45.6734 67.8113 45.7337 67.7717 45.7739C67.742 45.8041 67.6825 45.8191 67.5933 45.8191H61.3632C61.3434 45.8191 61.3335 45.789 61.3335 45.7287C61.3335 45.6684 61.3434 45.6383 61.3632 45.6383C61.7399 45.6383 62.0125 45.6132 62.181 45.5629C62.3594 45.5127 62.4784 45.4172 62.5378 45.2765C62.6072 45.1258 62.6419 44.8997 62.6419 44.5983V37.6199C62.6419 37.3185 62.6072 37.0974 62.5378 36.9567C62.4784 36.8161 62.3594 36.7206 62.181 36.6704C62.0125 36.6101 61.7399 36.5799 61.3632 36.5799C61.3434 36.5799 61.3335 36.5498 61.3335 36.4895C61.3335 36.4292 61.3434 36.3991 61.3632 36.3991H67.3405C67.4297 36.3991 67.4743 36.4443 67.4743 36.5347L67.5041 38.3886C67.5041 38.4187 67.4793 38.4388 67.4297 38.4489C67.3801 38.4489 67.3504 38.4338 67.3405 38.4037C67.3108 37.8711 67.1522 37.4592 66.8647 37.1678C66.5772 36.8663 66.1956 36.7156 65.7198 36.7156H64.8128C64.4658 36.7156 64.2081 36.7457 64.0396 36.806C63.881 36.8563 63.767 36.9517 63.6976 37.0924C63.6381 37.223 63.6084 37.424 63.6084 37.6953V40.7549H65.4224C65.8982 40.7549 66.2352 40.6745 66.4335 40.5138C66.6417 40.353 66.7458 40.0817 66.7458 39.6999C66.7458 39.6798 66.7755 39.6697 66.835 39.6697C66.8944 39.6697 66.9242 39.6798 66.9242 39.6999L66.9093 40.9207C66.9093 41.2121 66.9143 41.4332 66.9242 41.5839L66.939 42.3073C66.939 42.3274 66.9093 42.3375 66.8498 42.3375C66.7904 42.3375 66.7606 42.3274 66.7606 42.3073C66.7606 41.8652 66.6516 41.5487 66.4335 41.3578C66.2253 41.1669 65.8734 41.0714 65.3778 41.0714H63.6084V44.538C63.6084 44.8194 63.6381 45.0253 63.6976 45.156C63.7571 45.2866 63.8661 45.377 64.0247 45.4273C64.1833 45.4775 64.4312 45.5026 64.7682 45.5026H65.9577C66.4335 45.5026 66.83 45.3318 67.1472 44.9902C67.4644 44.6485 67.6775 44.1763 67.7866 43.5734Z" fill="#0E5A73"/>
<path d="M81.5419 45.6383C81.5618 45.6383 81.5717 45.6684 81.5717 45.7287C81.5717 45.789 81.5618 45.8191 81.5419 45.8191H79.6238C79.376 45.8191 78.9101 45.3921 78.2262 44.538C77.5521 43.6739 76.7294 42.4731 75.7579 40.9358C75.52 41.0061 75.2524 41.0413 74.955 41.0413C74.7667 41.0413 74.5436 41.0312 74.2859 41.0111V44.5983C74.2859 44.9098 74.3157 45.1359 74.3751 45.2765C74.4346 45.4172 74.5486 45.5127 74.7171 45.5629C74.8955 45.6132 75.1731 45.6383 75.5498 45.6383C75.5795 45.6383 75.5944 45.6684 75.5944 45.7287C75.5944 45.789 75.5795 45.8191 75.5498 45.8191C75.2425 45.8191 74.9996 45.8141 74.8212 45.8041L73.7952 45.789L72.7841 45.8041C72.6057 45.8141 72.353 45.8191 72.0258 45.8191C72.006 45.8191 71.9961 45.789 71.9961 45.7287C71.9961 45.6684 72.006 45.6383 72.0258 45.6383C72.4025 45.6383 72.6801 45.6132 72.8585 45.5629C73.0369 45.5026 73.1608 45.4021 73.2302 45.2615C73.2996 45.1208 73.3343 44.8997 73.3343 44.5983V37.6199C73.3343 37.3185 73.2996 37.0974 73.2302 36.9567C73.1707 36.8161 73.0518 36.7206 72.8734 36.6704C72.7048 36.6101 72.4323 36.5799 72.0556 36.5799C72.0258 36.5799 72.011 36.5498 72.011 36.4895C72.011 36.4292 72.0258 36.3991 72.0556 36.3991L72.7841 36.4142C73.2005 36.4342 73.5375 36.4443 73.7952 36.4443C73.9737 36.4443 74.1422 36.4393 74.3008 36.4292C74.4594 36.4192 74.5982 36.4091 74.7171 36.3991C75.0343 36.3689 75.3218 36.3539 75.5795 36.3539C76.3824 36.3539 77.002 36.5197 77.4381 36.8512C77.8743 37.1828 78.0924 37.645 78.0924 38.2379C78.0924 38.7202 77.9536 39.1774 77.676 39.6094C77.3985 40.0315 77.0317 40.3681 76.5757 40.6193C77.4183 41.8954 78.127 42.8951 78.702 43.6186C79.2769 44.332 79.7874 44.8495 80.2335 45.171C80.6795 45.4825 81.1157 45.6383 81.5419 45.6383ZM74.2859 40.6343C74.5337 40.6745 74.8261 40.6946 75.1632 40.6946C75.8471 40.6946 76.3378 40.5489 76.6352 40.2575C76.9326 39.9561 77.0813 39.4587 77.0813 38.7654C77.0813 37.3084 76.4766 36.5799 75.2673 36.5799C74.9996 36.5799 74.7964 36.6051 74.6576 36.6553C74.5288 36.6955 74.4346 36.791 74.3751 36.9417C74.3157 37.0823 74.2859 37.3185 74.2859 37.6501V40.6343Z" fill="#0E5A73"/>
<path d="M94.4608 45.6383C94.5005 45.6383 94.5203 45.6684 94.5203 45.7287C94.5203 45.789 94.5005 45.8191 94.4608 45.8191C94.2725 45.8191 93.9801 45.8091 93.5836 45.789C93.1871 45.7689 92.8996 45.7588 92.7212 45.7588C92.5031 45.7588 92.2255 45.7689 91.8885 45.789C91.5713 45.8091 91.3284 45.8191 91.1599 45.8191C91.1203 45.8191 91.1005 45.789 91.1005 45.7287C91.1005 45.6684 91.1203 45.6383 91.1599 45.6383C91.5267 45.6383 91.7943 45.6031 91.9628 45.5328C92.1314 45.4624 92.2156 45.3419 92.2156 45.171C92.2156 45.0304 92.1512 44.8143 92.0223 44.5229L90.3124 40.8303H87.5022L86.2234 43.905C86.0847 44.2466 86.0153 44.528 86.0153 44.749C86.0153 45.3419 86.501 45.6383 87.4724 45.6383C87.522 45.6383 87.5468 45.6684 87.5468 45.7287C87.5468 45.789 87.522 45.8191 87.4724 45.8191C87.294 45.8191 87.0363 45.8091 86.6992 45.789C86.3226 45.7689 85.9955 45.7588 85.7179 45.7588C85.4602 45.7588 85.1628 45.7689 84.8258 45.789C84.5284 45.8091 84.2806 45.8191 84.0823 45.8191C84.0328 45.8191 84.008 45.789 84.008 45.7287C84.008 45.6684 84.0328 45.6383 84.0823 45.6383C84.3599 45.6383 84.5928 45.588 84.7812 45.4875C84.9794 45.377 85.1628 45.1911 85.3313 44.9299C85.5097 44.6586 85.703 44.2717 85.9112 43.7693L89.0485 36.2634C89.0684 36.2333 89.1031 36.2182 89.1526 36.2182C89.2022 36.2182 89.2319 36.2333 89.2418 36.2634L92.7509 43.7543C93.0879 44.4978 93.3754 45.0002 93.6133 45.2615C93.8512 45.5127 94.1337 45.6383 94.4608 45.6383ZM87.636 40.5138H90.1637L88.8255 37.6501L87.636 40.5138Z" fill="#0E5A73"/>
<path d="M100.039 44.538C100.039 44.8595 100.079 45.0957 100.158 45.2464C100.247 45.3871 100.411 45.4875 100.648 45.5478C100.896 45.6081 101.283 45.6383 101.808 45.6383C101.838 45.6383 101.853 45.6684 101.853 45.7287C101.853 45.789 101.838 45.8191 101.808 45.8191C101.402 45.8191 101.085 45.8141 100.857 45.8041L99.5631 45.789L98.5668 45.8041C98.3785 45.8141 98.1257 45.8191 97.8085 45.8191C97.7887 45.8191 97.7788 45.789 97.7788 45.7287C97.7788 45.6684 97.7887 45.6383 97.8085 45.6383C98.1852 45.6383 98.4578 45.6132 98.6263 45.5629C98.8047 45.5127 98.9237 45.4172 98.9832 45.2765C99.0426 45.1258 99.0724 44.8997 99.0724 44.5983V37.6199C99.0724 37.3185 99.0426 37.0974 98.9832 36.9567C98.9237 36.8161 98.8047 36.7206 98.6263 36.6704C98.4578 36.6101 98.1852 36.5799 97.8085 36.5799C97.7887 36.5799 97.7788 36.5498 97.7788 36.4895C97.7788 36.4292 97.7887 36.3991 97.8085 36.3991L98.552 36.4142C98.9683 36.4342 99.3004 36.4443 99.5482 36.4443C99.796 36.4443 100.074 36.4292 100.381 36.3991C100.5 36.3991 100.688 36.3941 100.946 36.384C101.204 36.3639 101.427 36.3539 101.615 36.3539C102.527 36.3539 103.256 36.5599 103.801 36.9718C104.356 37.3838 104.633 38.0118 104.633 38.8558C104.633 39.519 104.47 40.0767 104.143 40.5288C103.825 40.981 103.414 41.3176 102.909 41.5387C102.403 41.7597 101.883 41.8703 101.347 41.8703C101.06 41.8703 100.822 41.8451 100.634 41.7949C100.604 41.7949 100.589 41.7698 100.589 41.7195C100.589 41.6894 100.594 41.6592 100.604 41.6291C100.624 41.599 100.644 41.5889 100.663 41.5989C100.822 41.6391 101 41.6592 101.199 41.6592C101.853 41.6592 102.403 41.4432 102.849 41.0111C103.305 40.5791 103.533 39.9561 103.533 39.1422C103.533 38.3484 103.32 37.7254 102.894 37.2733C102.467 36.8111 101.922 36.5799 101.258 36.5799C100.901 36.5799 100.644 36.6 100.485 36.6402C100.326 36.6804 100.212 36.7759 100.143 36.9266C100.074 37.0673 100.039 37.3084 100.039 37.6501V44.538Z" fill="#0E5A73"/>
<path d="M110.893 44.5983C110.893 44.8997 110.922 45.1258 110.982 45.2765C111.041 45.4172 111.155 45.5127 111.324 45.5629C111.502 45.6132 111.78 45.6383 112.157 45.6383C112.186 45.6383 112.201 45.6684 112.201 45.7287C112.201 45.789 112.186 45.8191 112.157 45.8191C111.859 45.8191 111.621 45.8141 111.443 45.8041L110.387 45.789L109.361 45.8041C109.183 45.8141 108.94 45.8191 108.633 45.8191C108.603 45.8191 108.588 45.789 108.588 45.7287C108.588 45.6684 108.603 45.6383 108.633 45.6383C109.009 45.6383 109.282 45.6132 109.45 45.5629C109.629 45.5127 109.748 45.4172 109.807 45.2765C109.877 45.1258 109.911 44.8997 109.911 44.5983V37.6199C109.911 37.3185 109.877 37.0974 109.807 36.9567C109.748 36.8161 109.629 36.7206 109.45 36.6704C109.282 36.6101 109.009 36.5799 108.633 36.5799C108.603 36.5799 108.588 36.5498 108.588 36.4895C108.588 36.4292 108.603 36.3991 108.633 36.3991L109.361 36.4142C109.778 36.4342 110.12 36.4443 110.387 36.4443C110.685 36.4443 111.041 36.4342 111.458 36.4142L112.157 36.3991C112.186 36.3991 112.201 36.4292 112.201 36.4895C112.201 36.5498 112.186 36.5799 112.157 36.5799C111.79 36.5799 111.517 36.6101 111.339 36.6704C111.17 36.7307 111.051 36.8362 110.982 36.9869C110.922 37.1276 110.893 37.3486 110.893 37.6501V44.5983Z" fill="#0E5A73"/>
<path d="M125.941 45.6383C125.98 45.6383 126 45.6684 126 45.7287C126 45.789 125.98 45.8191 125.941 45.8191C125.752 45.8191 125.46 45.8091 125.063 45.789C124.667 45.7689 124.379 45.7588 124.201 45.7588C123.983 45.7588 123.705 45.7689 123.368 45.789C123.051 45.8091 122.808 45.8191 122.64 45.8191C122.6 45.8191 122.58 45.789 122.58 45.7287C122.58 45.6684 122.6 45.6383 122.64 45.6383C123.006 45.6383 123.274 45.6031 123.443 45.5328C123.611 45.4624 123.695 45.3419 123.695 45.171C123.695 45.0304 123.631 44.8143 123.502 44.5229L121.792 40.8303H118.982L117.703 43.905C117.564 44.2466 117.495 44.528 117.495 44.749C117.495 45.3419 117.981 45.6383 118.952 45.6383C119.002 45.6383 119.026 45.6684 119.026 45.7287C119.026 45.789 119.002 45.8191 118.952 45.8191C118.774 45.8191 118.516 45.8091 118.179 45.789C117.802 45.7689 117.475 45.7588 117.198 45.7588C116.94 45.7588 116.643 45.7689 116.305 45.789C116.008 45.8091 115.76 45.8191 115.562 45.8191C115.512 45.8191 115.488 45.789 115.488 45.7287C115.488 45.6684 115.512 45.6383 115.562 45.6383C115.84 45.6383 116.073 45.588 116.261 45.4875C116.459 45.377 116.642 45.1911 116.811 44.9299C116.989 44.6586 117.183 44.2717 117.391 43.7693L120.528 36.2634C120.548 36.2333 120.583 36.2182 120.632 36.2182C120.682 36.2182 120.712 36.2333 120.722 36.2634L124.231 43.7543C124.568 44.4978 124.855 45.0002 125.093 45.2615C125.331 45.5127 125.613 45.6383 125.941 45.6383ZM119.116 40.5138H121.643L120.305 37.6501L119.116 40.5138Z" fill="#0E5A73"/>
</svg>
